G75*
G70*
%OFA0B0*%
%FSLAX24Y24*%
%IPPOS*%
%LPD*%
%AMOC8*
5,1,8,0,0,1.08239X$1,22.5*
%
%ADD10C,0.0820*%
%ADD11C,0.1380*%
D10*
X018553Y006610D03*
X021113Y006610D03*
X021113Y008390D03*
X018553Y008390D03*
X024833Y011000D03*
X025833Y011000D03*
X026833Y011000D03*
X027833Y011000D03*
X028833Y011000D03*
X029833Y011000D03*
X029333Y006000D03*
X030333Y006000D03*
X028333Y006000D03*
X027333Y006000D03*
X026333Y006000D03*
X025333Y006000D03*
X032333Y006000D03*
X033333Y006000D03*
X034333Y006000D03*
X035333Y006000D03*
X036333Y006000D03*
X037333Y006000D03*
X029833Y020000D03*
X028833Y020000D03*
X027833Y020000D03*
X026833Y020000D03*
X025833Y020000D03*
X024833Y020000D03*
X024833Y025000D03*
X023833Y025000D03*
X022833Y025000D03*
X021833Y025000D03*
X025833Y025000D03*
X026833Y025000D03*
X027833Y025000D03*
X028833Y025000D03*
X030333Y025000D03*
X031333Y025000D03*
X032333Y025000D03*
X033333Y025000D03*
X034333Y025000D03*
X035333Y025000D03*
X036333Y025000D03*
X037333Y025000D03*
D11*
X018333Y025000D03*
X038333Y008000D03*
M02*
