G75*
G70*
%OFA0B0*%
%FSLAX24Y24*%
%IPPOS*%
%LPD*%
%AMOC8*
5,1,8,0,0,1.08239X$1,22.5*
%
%ADD10C,0.0080*%
%ADD11C,0.0110*%
%ADD12C,0.0010*%
%ADD13R,0.0195X0.0191*%
%ADD14C,0.0060*%
%ADD15C,0.0100*%
%ADD16C,0.0591*%
D10*
X017323Y006391D02*
X017323Y006602D01*
X017393Y006672D01*
X017533Y006672D01*
X017603Y006602D01*
X017603Y006391D01*
X017743Y006391D02*
X017323Y006391D01*
X017603Y006532D02*
X017743Y006672D01*
X017673Y006852D02*
X017533Y006852D01*
X017463Y006922D01*
X017463Y007062D01*
X017533Y007132D01*
X017603Y007132D01*
X017603Y006852D01*
X017673Y006852D02*
X017743Y006922D01*
X017743Y007062D01*
X017743Y007312D02*
X017743Y007522D01*
X017673Y007593D01*
X017603Y007522D01*
X017603Y007382D01*
X017533Y007312D01*
X017463Y007382D01*
X017463Y007593D01*
X017533Y007773D02*
X017463Y007843D01*
X017463Y007983D01*
X017533Y008053D01*
X017603Y008053D01*
X017603Y007773D01*
X017673Y007773D02*
X017533Y007773D01*
X017673Y007773D02*
X017743Y007843D01*
X017743Y007983D01*
X017673Y008303D02*
X017393Y008303D01*
X017463Y008233D02*
X017463Y008373D01*
X017673Y008303D02*
X017743Y008373D01*
X018633Y007900D02*
X018633Y007107D01*
X018983Y006300D02*
X020683Y006300D01*
X021033Y007095D02*
X021033Y007900D01*
X019133Y007500D02*
X019135Y007552D01*
X019141Y007604D01*
X019151Y007656D01*
X019164Y007706D01*
X019181Y007756D01*
X019202Y007804D01*
X019227Y007850D01*
X019255Y007894D01*
X019286Y007936D01*
X019320Y007976D01*
X019357Y008013D01*
X019397Y008047D01*
X019439Y008078D01*
X019483Y008106D01*
X019529Y008131D01*
X019577Y008152D01*
X019627Y008169D01*
X019677Y008182D01*
X019729Y008192D01*
X019781Y008198D01*
X019833Y008200D01*
X019885Y008198D01*
X019937Y008192D01*
X019989Y008182D01*
X020039Y008169D01*
X020089Y008152D01*
X020137Y008131D01*
X020183Y008106D01*
X020227Y008078D01*
X020269Y008047D01*
X020309Y008013D01*
X020346Y007976D01*
X020380Y007936D01*
X020411Y007894D01*
X020439Y007850D01*
X020464Y007804D01*
X020485Y007756D01*
X020502Y007706D01*
X020515Y007656D01*
X020525Y007604D01*
X020531Y007552D01*
X020533Y007500D01*
X020531Y007448D01*
X020525Y007396D01*
X020515Y007344D01*
X020502Y007294D01*
X020485Y007244D01*
X020464Y007196D01*
X020439Y007150D01*
X020411Y007106D01*
X020380Y007064D01*
X020346Y007024D01*
X020309Y006987D01*
X020269Y006953D01*
X020227Y006922D01*
X020183Y006894D01*
X020137Y006869D01*
X020089Y006848D01*
X020039Y006831D01*
X019989Y006818D01*
X019937Y006808D01*
X019885Y006802D01*
X019833Y006800D01*
X019781Y006802D01*
X019729Y006808D01*
X019677Y006818D01*
X019627Y006831D01*
X019577Y006848D01*
X019529Y006869D01*
X019483Y006894D01*
X019439Y006922D01*
X019397Y006953D01*
X019357Y006987D01*
X019320Y007024D01*
X019286Y007064D01*
X019255Y007106D01*
X019227Y007150D01*
X019202Y007196D01*
X019181Y007244D01*
X019164Y007294D01*
X019151Y007344D01*
X019141Y007396D01*
X019135Y007448D01*
X019133Y007500D01*
X018983Y008700D02*
X020683Y008700D01*
X020787Y021040D02*
X020787Y021460D01*
X020857Y021320D02*
X020997Y021320D01*
X021067Y021250D01*
X021067Y021040D01*
X021247Y021040D02*
X021387Y021040D01*
X021317Y021040D02*
X021317Y021320D01*
X021247Y021320D01*
X021317Y021460D02*
X021317Y021530D01*
X021554Y021250D02*
X021624Y021320D01*
X021764Y021320D01*
X021834Y021250D01*
X021834Y021180D01*
X021554Y021180D01*
X021554Y021110D02*
X021554Y021250D01*
X021554Y021110D02*
X021624Y021040D01*
X021764Y021040D01*
X022014Y021040D02*
X022155Y021040D01*
X022084Y021040D02*
X022084Y021460D01*
X022014Y021460D01*
X022321Y021250D02*
X022391Y021320D01*
X022602Y021320D01*
X022602Y021460D02*
X022602Y021040D01*
X022391Y021040D01*
X022321Y021110D01*
X022321Y021250D01*
X023623Y021308D02*
X023693Y021238D01*
X023763Y021238D01*
X023833Y021308D01*
X023833Y021448D01*
X023903Y021518D01*
X023973Y021518D01*
X024043Y021448D01*
X024043Y021308D01*
X023973Y021238D01*
X023623Y021308D02*
X023623Y021448D01*
X023693Y021518D01*
X023623Y021698D02*
X024043Y021698D01*
X024043Y021979D01*
X023973Y022159D02*
X024043Y022229D01*
X024043Y022369D01*
X023973Y022439D01*
X023833Y022439D01*
X023833Y022299D01*
X023693Y022439D02*
X023623Y022369D01*
X023623Y022229D01*
X023693Y022159D01*
X023973Y022159D01*
X023833Y021839D02*
X023833Y021698D01*
X023623Y021698D02*
X023623Y021979D01*
X023623Y022619D02*
X023623Y022829D01*
X023693Y022899D01*
X023973Y022899D01*
X024043Y022829D01*
X024043Y022619D01*
X023623Y022619D01*
X023623Y023080D02*
X023623Y023290D01*
X023693Y023360D01*
X023833Y023360D01*
X023903Y023290D01*
X023903Y023080D01*
X024043Y023080D02*
X023623Y023080D01*
X024623Y023150D02*
X024693Y023080D01*
X024973Y023080D01*
X025043Y023150D01*
X025043Y023290D01*
X024973Y023360D01*
X024833Y023360D01*
X024833Y023220D01*
X024693Y023360D02*
X024623Y023290D01*
X024623Y023150D01*
X024693Y022899D02*
X024623Y022829D01*
X024623Y022689D01*
X024693Y022619D01*
X024973Y022619D01*
X025043Y022689D01*
X025043Y022829D01*
X024973Y022899D01*
X024833Y022899D01*
X024833Y022759D01*
X024623Y022439D02*
X024623Y022159D01*
X025043Y022159D01*
X025043Y022439D01*
X024833Y022299D02*
X024833Y022159D01*
X024903Y021979D02*
X024973Y021979D01*
X025043Y021909D01*
X025043Y021768D01*
X024973Y021698D01*
X024833Y021768D02*
X024833Y021909D01*
X024903Y021979D01*
X024693Y021979D02*
X024623Y021909D01*
X024623Y021768D01*
X024693Y021698D01*
X024763Y021698D01*
X024833Y021768D01*
X025623Y021768D02*
X025693Y021698D01*
X025763Y021698D01*
X025833Y021768D01*
X025833Y021909D01*
X025903Y021979D01*
X025973Y021979D01*
X026043Y021909D01*
X026043Y021768D01*
X025973Y021698D01*
X025623Y021768D02*
X025623Y021909D01*
X025693Y021979D01*
X025623Y022159D02*
X026043Y022159D01*
X026043Y022439D01*
X025973Y022619D02*
X025693Y022619D01*
X025623Y022689D01*
X025623Y022829D01*
X025693Y022899D01*
X025833Y022899D02*
X025833Y022759D01*
X025833Y022899D02*
X025973Y022899D01*
X026043Y022829D01*
X026043Y022689D01*
X025973Y022619D01*
X025833Y022299D02*
X025833Y022159D01*
X025623Y022159D02*
X025623Y022439D01*
X026623Y022439D02*
X026623Y022159D01*
X027043Y022159D01*
X027043Y022439D01*
X026973Y022619D02*
X027043Y022689D01*
X027043Y022829D01*
X026973Y022899D01*
X026833Y022899D01*
X026833Y022759D01*
X026693Y022619D02*
X026973Y022619D01*
X026693Y022619D02*
X026623Y022689D01*
X026623Y022829D01*
X026693Y022899D01*
X026623Y023080D02*
X027043Y023080D01*
X027043Y023360D01*
X026833Y023220D02*
X026833Y023080D01*
X026623Y023080D02*
X026623Y023360D01*
X026043Y023080D02*
X025623Y023080D01*
X025623Y023360D01*
X025833Y023220D02*
X025833Y023080D01*
X026833Y022299D02*
X026833Y022159D01*
X026903Y021979D02*
X026973Y021979D01*
X027043Y021909D01*
X027043Y021768D01*
X026973Y021698D01*
X026833Y021768D02*
X026763Y021698D01*
X026693Y021698D01*
X026623Y021768D01*
X026623Y021909D01*
X026693Y021979D01*
X026833Y021909D02*
X026903Y021979D01*
X026833Y021909D02*
X026833Y021768D01*
X027623Y021768D02*
X027693Y021698D01*
X027763Y021698D01*
X027833Y021768D01*
X027833Y021909D01*
X027903Y021979D01*
X027973Y021979D01*
X028043Y021909D01*
X028043Y021768D01*
X027973Y021698D01*
X027623Y021768D02*
X027623Y021909D01*
X027693Y021979D01*
X027623Y022159D02*
X028043Y022159D01*
X028043Y022439D01*
X027973Y022619D02*
X027693Y022619D01*
X027623Y022689D01*
X027623Y022829D01*
X027693Y022899D01*
X027833Y022899D02*
X027833Y022759D01*
X027833Y022899D02*
X027973Y022899D01*
X028043Y022829D01*
X028043Y022689D01*
X027973Y022619D01*
X027833Y022299D02*
X027833Y022159D01*
X027623Y022159D02*
X027623Y022439D01*
X028623Y022439D02*
X028623Y022159D01*
X029043Y022159D01*
X029043Y022439D01*
X028973Y022619D02*
X028693Y022619D01*
X028623Y022689D01*
X028623Y022829D01*
X028693Y022899D01*
X028833Y022899D02*
X028833Y022759D01*
X028833Y022899D02*
X028973Y022899D01*
X029043Y022829D01*
X029043Y022689D01*
X028973Y022619D01*
X028833Y022299D02*
X028833Y022159D01*
X028903Y021979D02*
X028973Y021979D01*
X029043Y021909D01*
X029043Y021768D01*
X028973Y021698D01*
X028833Y021768D02*
X028833Y021909D01*
X028903Y021979D01*
X028693Y021979D02*
X028623Y021909D01*
X028623Y021768D01*
X028693Y021698D01*
X028763Y021698D01*
X028833Y021768D01*
X030123Y021768D02*
X030193Y021698D01*
X030263Y021698D01*
X030333Y021768D01*
X030333Y021909D01*
X030403Y021979D01*
X030473Y021979D01*
X030543Y021909D01*
X030543Y021768D01*
X030473Y021698D01*
X030123Y021768D02*
X030123Y021909D01*
X030193Y021979D01*
X030123Y022159D02*
X030543Y022159D01*
X030543Y022439D01*
X030473Y022619D02*
X030543Y022689D01*
X030543Y022829D01*
X030473Y022899D01*
X030333Y022899D01*
X030333Y022759D01*
X030193Y022619D02*
X030473Y022619D01*
X030193Y022619D02*
X030123Y022689D01*
X030123Y022829D01*
X030193Y022899D01*
X030123Y023080D02*
X030123Y023290D01*
X030193Y023360D01*
X030263Y023360D01*
X030333Y023290D01*
X030333Y023080D01*
X030333Y023290D02*
X030403Y023360D01*
X030473Y023360D01*
X030543Y023290D01*
X030543Y023080D01*
X030123Y023080D01*
X031123Y023220D02*
X031263Y023360D01*
X031543Y023360D01*
X031333Y023360D02*
X031333Y023080D01*
X031263Y023080D02*
X031123Y023220D01*
X031263Y023080D02*
X031543Y023080D01*
X031473Y022899D02*
X031333Y022899D01*
X031333Y022759D01*
X031193Y022619D02*
X031473Y022619D01*
X031543Y022689D01*
X031543Y022829D01*
X031473Y022899D01*
X031193Y022899D02*
X031123Y022829D01*
X031123Y022689D01*
X031193Y022619D01*
X031123Y022439D02*
X031123Y022159D01*
X031543Y022159D01*
X031543Y022439D01*
X031333Y022299D02*
X031333Y022159D01*
X031403Y021979D02*
X031333Y021909D01*
X031333Y021768D01*
X031263Y021698D01*
X031193Y021698D01*
X031123Y021768D01*
X031123Y021909D01*
X031193Y021979D01*
X031403Y021979D02*
X031473Y021979D01*
X031543Y021909D01*
X031543Y021768D01*
X031473Y021698D01*
X032123Y021852D02*
X032123Y022062D01*
X032193Y022132D01*
X032473Y022132D01*
X032543Y022062D01*
X032543Y021852D01*
X032123Y021852D01*
X032123Y022312D02*
X032123Y022452D01*
X032123Y022382D02*
X032543Y022382D01*
X032543Y022312D02*
X032543Y022452D01*
X032473Y022619D02*
X032193Y022619D01*
X032123Y022689D01*
X032123Y022829D01*
X032193Y022899D01*
X032333Y022899D02*
X032333Y022759D01*
X032333Y022899D02*
X032473Y022899D01*
X032543Y022829D01*
X032543Y022689D01*
X032473Y022619D01*
X032473Y023080D02*
X032543Y023150D01*
X032543Y023290D01*
X032473Y023360D01*
X032403Y023360D01*
X032333Y023290D01*
X032333Y023220D01*
X032333Y023290D02*
X032263Y023360D01*
X032193Y023360D01*
X032123Y023290D01*
X032123Y023150D01*
X032193Y023080D01*
X033123Y023150D02*
X033123Y023290D01*
X033193Y023360D01*
X033263Y023360D01*
X033333Y023290D01*
X033403Y023360D01*
X033473Y023360D01*
X033543Y023290D01*
X033543Y023150D01*
X033473Y023080D01*
X033473Y022899D02*
X033333Y022899D01*
X033333Y022759D01*
X033193Y022619D02*
X033473Y022619D01*
X033543Y022689D01*
X033543Y022829D01*
X033473Y022899D01*
X033193Y022899D02*
X033123Y022829D01*
X033123Y022689D01*
X033193Y022619D01*
X033123Y022452D02*
X033123Y022312D01*
X033123Y022382D02*
X033543Y022382D01*
X033543Y022312D02*
X033543Y022452D01*
X033473Y022132D02*
X033193Y022132D01*
X033123Y022062D01*
X033123Y021852D01*
X033543Y021852D01*
X033543Y022062D01*
X033473Y022132D01*
X034123Y022062D02*
X034123Y021852D01*
X034543Y021852D01*
X034543Y022062D01*
X034473Y022132D01*
X034193Y022132D01*
X034123Y022062D01*
X034123Y022312D02*
X034123Y022452D01*
X034123Y022382D02*
X034543Y022382D01*
X034543Y022312D02*
X034543Y022452D01*
X034473Y022619D02*
X034193Y022619D01*
X034123Y022689D01*
X034123Y022829D01*
X034193Y022899D01*
X034333Y022899D02*
X034333Y022759D01*
X034333Y022899D02*
X034473Y022899D01*
X034543Y022829D01*
X034543Y022689D01*
X034473Y022619D01*
X035123Y022689D02*
X035123Y022829D01*
X035193Y022899D01*
X035333Y022899D02*
X035333Y022759D01*
X035333Y022899D02*
X035473Y022899D01*
X035543Y022829D01*
X035543Y022689D01*
X035473Y022619D01*
X035193Y022619D01*
X035123Y022689D01*
X035123Y022452D02*
X035123Y022312D01*
X035123Y022382D02*
X035543Y022382D01*
X035543Y022312D02*
X035543Y022452D01*
X035473Y022132D02*
X035193Y022132D01*
X035123Y022062D01*
X035123Y021852D01*
X035543Y021852D01*
X035543Y022062D01*
X035473Y022132D01*
X035543Y023080D02*
X035543Y023360D01*
X035543Y023220D02*
X035123Y023220D01*
X035263Y023080D01*
X034543Y023080D02*
X034263Y023360D01*
X034193Y023360D01*
X034123Y023290D01*
X034123Y023150D01*
X034193Y023080D01*
X034543Y023080D02*
X034543Y023360D01*
X033333Y023290D02*
X033333Y023220D01*
X033193Y023080D02*
X033123Y023150D01*
X030333Y022299D02*
X030333Y022159D01*
X030123Y022159D02*
X030123Y022439D01*
X029043Y023150D02*
X029043Y023290D01*
X028973Y023360D01*
X029043Y023150D02*
X028973Y023080D01*
X028693Y023080D01*
X028623Y023150D01*
X028623Y023290D01*
X028693Y023360D01*
X028043Y023290D02*
X027973Y023360D01*
X027693Y023360D01*
X027623Y023290D01*
X027623Y023080D01*
X028043Y023080D01*
X028043Y023290D01*
X020857Y021320D02*
X020787Y021250D01*
X020607Y021180D02*
X020607Y021110D01*
X020536Y021040D01*
X020396Y021040D01*
X020326Y021110D01*
X020396Y021250D02*
X020536Y021250D01*
X020607Y021180D01*
X020607Y021390D02*
X020536Y021460D01*
X020396Y021460D01*
X020326Y021390D01*
X020326Y021320D01*
X020396Y021250D01*
X019692Y021320D02*
X019622Y021320D01*
X019482Y021180D01*
X019482Y021040D02*
X019482Y021320D01*
X019302Y021250D02*
X019302Y021180D01*
X019022Y021180D01*
X019022Y021110D02*
X019022Y021250D01*
X019092Y021320D01*
X019232Y021320D01*
X019302Y021250D01*
X019232Y021040D02*
X019092Y021040D01*
X019022Y021110D01*
X018855Y021040D02*
X018785Y021110D01*
X018785Y021390D01*
X018715Y021320D02*
X018855Y021320D01*
X018535Y021250D02*
X018535Y021040D01*
X018535Y021250D02*
X018465Y021320D01*
X018255Y021320D01*
X018255Y021040D01*
X018074Y021040D02*
X018074Y021320D01*
X017794Y021320D02*
X017794Y021110D01*
X017864Y021040D01*
X018074Y021040D01*
X017614Y021110D02*
X017614Y021250D01*
X017544Y021320D01*
X017404Y021320D01*
X017334Y021250D01*
X017334Y021110D01*
X017404Y021040D01*
X017544Y021040D01*
X017614Y021110D01*
X017154Y021110D02*
X017084Y021040D01*
X016943Y021040D01*
X016873Y021110D01*
X016873Y021390D01*
X016943Y021460D01*
X017084Y021460D01*
X017154Y021390D01*
D11*
X020888Y001146D02*
X021282Y000555D01*
X021282Y001146D01*
X020888Y001146D02*
X020888Y000555D01*
X021533Y000555D02*
X021631Y000555D01*
X021631Y000653D01*
X021533Y000653D01*
X021533Y000555D01*
X022500Y000653D02*
X022598Y000555D01*
X022795Y000555D01*
X022893Y000653D01*
X022893Y000752D01*
X022795Y000850D01*
X022598Y000850D01*
X022500Y000949D01*
X022500Y001047D01*
X022598Y001146D01*
X022795Y001146D01*
X022893Y001047D01*
X023144Y000850D02*
X023243Y000949D01*
X023440Y000949D01*
X023538Y000850D01*
X023538Y000752D01*
X023144Y000752D01*
X023144Y000850D02*
X023144Y000653D01*
X023243Y000555D01*
X023440Y000555D01*
X023789Y000555D02*
X023986Y000555D01*
X023887Y000555D02*
X023887Y000949D01*
X023789Y000949D01*
X023887Y001146D02*
X023887Y001244D01*
X024219Y000850D02*
X024317Y000949D01*
X024612Y000949D01*
X024612Y001146D02*
X024612Y000555D01*
X024317Y000555D01*
X024219Y000653D01*
X024219Y000850D01*
X024863Y000555D02*
X025060Y000555D01*
X024961Y000555D02*
X024961Y001146D01*
X024863Y001146D01*
X025293Y000850D02*
X025391Y000949D01*
X025588Y000949D01*
X025686Y000850D01*
X025686Y000752D01*
X025293Y000752D01*
X025293Y000850D02*
X025293Y000653D01*
X025391Y000555D01*
X025588Y000555D01*
D12*
X027926Y008813D02*
X027937Y008828D01*
X027953Y008847D01*
X027971Y008863D01*
X028007Y008885D01*
X028046Y008900D01*
X028087Y008906D01*
X028166Y008904D01*
X028205Y008896D01*
X028240Y008879D01*
X028271Y008855D01*
X028291Y008832D01*
X028306Y008807D01*
X028316Y008779D01*
X028326Y008735D01*
X028329Y008691D01*
X028329Y008276D01*
X028168Y008276D01*
X028168Y008656D01*
X028166Y008685D01*
X028158Y008713D01*
X028145Y008739D01*
X028133Y008755D01*
X028117Y008768D01*
X028099Y008777D01*
X028087Y008780D01*
X028073Y008781D01*
X028029Y008779D01*
X028007Y008775D01*
X027985Y008767D01*
X027966Y008754D01*
X027945Y008731D01*
X027930Y008703D01*
X027922Y008673D01*
X027918Y008641D01*
X027918Y008272D01*
X027752Y008272D01*
X027752Y008891D01*
X027911Y008891D01*
X027911Y008804D01*
X027914Y008804D01*
X027918Y008805D01*
X027921Y008807D01*
X027926Y008813D01*
X027937Y008828D01*
X027935Y008825D02*
X028295Y008825D01*
X028300Y008817D02*
X027929Y008817D01*
X027922Y008808D02*
X028305Y008808D01*
X028308Y008800D02*
X027752Y008800D01*
X027752Y008808D02*
X027911Y008808D01*
X027911Y008804D02*
X027914Y008804D01*
X027911Y008804D02*
X027911Y008891D01*
X027752Y008891D01*
X027752Y008272D01*
X027918Y008272D01*
X027918Y008614D01*
X027918Y008613D02*
X027752Y008613D01*
X027752Y008621D02*
X027918Y008621D01*
X027918Y008630D02*
X027752Y008630D01*
X027752Y008638D02*
X027918Y008638D01*
X027919Y008647D02*
X027752Y008647D01*
X027752Y008655D02*
X027920Y008655D01*
X027921Y008664D02*
X027752Y008664D01*
X027752Y008672D02*
X027922Y008672D01*
X027924Y008681D02*
X027752Y008681D01*
X027752Y008689D02*
X027926Y008689D01*
X027929Y008698D02*
X027752Y008698D01*
X027752Y008706D02*
X027932Y008706D01*
X027937Y008715D02*
X027752Y008715D01*
X027752Y008723D02*
X027941Y008723D01*
X027946Y008732D02*
X027752Y008732D01*
X027752Y008740D02*
X027954Y008740D01*
X027961Y008749D02*
X027752Y008749D01*
X027752Y008757D02*
X027971Y008757D01*
X027983Y008766D02*
X027752Y008766D01*
X027752Y008774D02*
X028003Y008774D01*
X027942Y008834D02*
X028290Y008834D01*
X028282Y008842D02*
X027949Y008842D01*
X027958Y008851D02*
X028275Y008851D01*
X028266Y008859D02*
X027967Y008859D01*
X027979Y008868D02*
X028255Y008868D01*
X028244Y008876D02*
X027992Y008876D01*
X028006Y008885D02*
X028229Y008885D01*
X028211Y008893D02*
X028028Y008893D01*
X028058Y008902D02*
X028178Y008902D01*
X028105Y008774D02*
X028317Y008774D01*
X028319Y008766D02*
X028120Y008766D01*
X028131Y008757D02*
X028321Y008757D01*
X028323Y008749D02*
X028138Y008749D01*
X028145Y008740D02*
X028325Y008740D01*
X028326Y008732D02*
X028149Y008732D01*
X028316Y008779D02*
X028309Y008800D01*
X028299Y008820D01*
X028286Y008839D01*
X028271Y008855D01*
X028312Y008791D02*
X027752Y008791D01*
X027752Y008783D02*
X028315Y008783D01*
X028327Y008723D02*
X028153Y008723D01*
X028157Y008715D02*
X028327Y008715D01*
X028328Y008706D02*
X028160Y008706D01*
X028162Y008698D02*
X028329Y008698D01*
X028329Y008691D02*
X028329Y008276D01*
X028168Y008276D01*
X028168Y008656D01*
X028168Y008655D02*
X028329Y008655D01*
X028329Y008647D02*
X028168Y008647D01*
X028168Y008638D02*
X028329Y008638D01*
X028329Y008630D02*
X028168Y008630D01*
X028168Y008621D02*
X028329Y008621D01*
X028329Y008613D02*
X028168Y008613D01*
X028168Y008604D02*
X028329Y008604D01*
X028329Y008596D02*
X028168Y008596D01*
X028168Y008587D02*
X028329Y008587D01*
X028329Y008579D02*
X028168Y008579D01*
X028168Y008570D02*
X028329Y008570D01*
X028329Y008562D02*
X028168Y008562D01*
X028168Y008553D02*
X028329Y008553D01*
X028329Y008545D02*
X028168Y008545D01*
X028168Y008536D02*
X028329Y008536D01*
X028329Y008528D02*
X028168Y008528D01*
X028168Y008519D02*
X028329Y008519D01*
X028329Y008511D02*
X028168Y008511D01*
X028168Y008502D02*
X028329Y008502D01*
X028329Y008494D02*
X028168Y008494D01*
X028168Y008485D02*
X028329Y008485D01*
X028329Y008477D02*
X028168Y008477D01*
X028168Y008468D02*
X028329Y008468D01*
X028329Y008460D02*
X028168Y008460D01*
X028168Y008451D02*
X028329Y008451D01*
X028329Y008443D02*
X028168Y008443D01*
X028168Y008434D02*
X028329Y008434D01*
X028329Y008426D02*
X028168Y008426D01*
X028168Y008417D02*
X028329Y008417D01*
X028329Y008409D02*
X028168Y008409D01*
X028168Y008400D02*
X028329Y008400D01*
X028329Y008392D02*
X028168Y008392D01*
X028168Y008383D02*
X028329Y008383D01*
X028329Y008375D02*
X028168Y008375D01*
X028168Y008366D02*
X028329Y008366D01*
X028329Y008358D02*
X028168Y008358D01*
X028168Y008349D02*
X028329Y008349D01*
X028329Y008341D02*
X028168Y008341D01*
X028168Y008332D02*
X028329Y008332D01*
X028329Y008324D02*
X028168Y008324D01*
X028168Y008315D02*
X028329Y008315D01*
X028329Y008307D02*
X028168Y008307D01*
X028168Y008298D02*
X028329Y008298D01*
X028329Y008290D02*
X028168Y008290D01*
X028168Y008281D02*
X028329Y008281D01*
X028166Y008905D02*
X028127Y008907D01*
X028087Y008906D01*
X027911Y008885D02*
X027752Y008885D01*
X027752Y008876D02*
X027911Y008876D01*
X027911Y008868D02*
X027752Y008868D01*
X027752Y008859D02*
X027911Y008859D01*
X027911Y008851D02*
X027752Y008851D01*
X027752Y008842D02*
X027911Y008842D01*
X027911Y008834D02*
X027752Y008834D01*
X027752Y008825D02*
X027911Y008825D01*
X027911Y008817D02*
X027752Y008817D01*
X027654Y008817D02*
X027488Y008817D01*
X027488Y008825D02*
X027654Y008825D01*
X027654Y008834D02*
X027488Y008834D01*
X027488Y008842D02*
X027654Y008842D01*
X027654Y008851D02*
X027488Y008851D01*
X027488Y008859D02*
X027654Y008859D01*
X027654Y008868D02*
X027488Y008868D01*
X027488Y008876D02*
X027654Y008876D01*
X027654Y008885D02*
X027488Y008885D01*
X027488Y008890D02*
X027488Y008563D01*
X027485Y008514D01*
X027476Y008466D01*
X027468Y008443D01*
X027454Y008423D01*
X027436Y008407D01*
X027415Y008395D01*
X027387Y008386D01*
X027358Y008384D01*
X027328Y008387D01*
X027300Y008396D01*
X027284Y008405D01*
X027270Y008418D01*
X027258Y008433D01*
X027244Y008464D01*
X027238Y008498D01*
X027238Y008892D01*
X027075Y008892D01*
X027075Y008467D01*
X027079Y008424D01*
X027091Y008382D01*
X027110Y008343D01*
X027136Y008308D01*
X027146Y008299D01*
X027182Y008278D01*
X027221Y008265D01*
X027261Y008259D01*
X027320Y008260D01*
X027378Y008269D01*
X027389Y008272D01*
X027398Y008277D01*
X027435Y008303D01*
X027468Y008334D01*
X027495Y008369D01*
X027496Y008369D01*
X027496Y008275D01*
X027654Y008275D01*
X027654Y008890D01*
X027488Y008890D01*
X027488Y008808D02*
X027654Y008808D01*
X027654Y008800D02*
X027488Y008800D01*
X027488Y008791D02*
X027654Y008791D01*
X027654Y008783D02*
X027488Y008783D01*
X027488Y008774D02*
X027654Y008774D01*
X027654Y008766D02*
X027488Y008766D01*
X027488Y008757D02*
X027654Y008757D01*
X027654Y008749D02*
X027488Y008749D01*
X027488Y008740D02*
X027654Y008740D01*
X027654Y008732D02*
X027488Y008732D01*
X027488Y008723D02*
X027654Y008723D01*
X027654Y008715D02*
X027488Y008715D01*
X027488Y008706D02*
X027654Y008706D01*
X027654Y008698D02*
X027488Y008698D01*
X027488Y008689D02*
X027654Y008689D01*
X027654Y008681D02*
X027488Y008681D01*
X027488Y008672D02*
X027654Y008672D01*
X027654Y008664D02*
X027488Y008664D01*
X027488Y008655D02*
X027654Y008655D01*
X027654Y008647D02*
X027488Y008647D01*
X027488Y008638D02*
X027654Y008638D01*
X027654Y008630D02*
X027488Y008630D01*
X027488Y008621D02*
X027654Y008621D01*
X027654Y008613D02*
X027488Y008613D01*
X027488Y008604D02*
X027654Y008604D01*
X027654Y008596D02*
X027488Y008596D01*
X027488Y008587D02*
X027654Y008587D01*
X027654Y008579D02*
X027488Y008579D01*
X027488Y008570D02*
X027654Y008570D01*
X027654Y008562D02*
X027488Y008562D01*
X027488Y008553D02*
X027654Y008553D01*
X027654Y008545D02*
X027487Y008545D01*
X027487Y008536D02*
X027654Y008536D01*
X027654Y008528D02*
X027486Y008528D01*
X027486Y008519D02*
X027654Y008519D01*
X027654Y008511D02*
X027485Y008511D01*
X027483Y008502D02*
X027654Y008502D01*
X027654Y008494D02*
X027481Y008494D01*
X027480Y008485D02*
X027654Y008485D01*
X027654Y008477D02*
X027478Y008477D01*
X027477Y008468D02*
X027654Y008468D01*
X027654Y008460D02*
X027474Y008460D01*
X027471Y008451D02*
X027654Y008451D01*
X027654Y008443D02*
X027467Y008443D01*
X027461Y008434D02*
X027654Y008434D01*
X027654Y008426D02*
X027456Y008426D01*
X027447Y008417D02*
X027654Y008417D01*
X027654Y008409D02*
X027438Y008409D01*
X027424Y008400D02*
X027654Y008400D01*
X027654Y008392D02*
X027404Y008392D01*
X027473Y008341D02*
X027112Y008341D01*
X027107Y008349D02*
X027480Y008349D01*
X027486Y008358D02*
X027103Y008358D01*
X027099Y008366D02*
X027493Y008366D01*
X027496Y008366D02*
X027654Y008366D01*
X027654Y008358D02*
X027496Y008358D01*
X027496Y008349D02*
X027654Y008349D01*
X027654Y008341D02*
X027496Y008341D01*
X027496Y008332D02*
X027654Y008332D01*
X027654Y008324D02*
X027496Y008324D01*
X027496Y008315D02*
X027654Y008315D01*
X027654Y008307D02*
X027496Y008307D01*
X027496Y008298D02*
X027654Y008298D01*
X027654Y008290D02*
X027496Y008290D01*
X027496Y008281D02*
X027654Y008281D01*
X027654Y008375D02*
X027095Y008375D01*
X027091Y008383D02*
X027654Y008383D01*
X027752Y008383D02*
X027918Y008383D01*
X027918Y008375D02*
X027752Y008375D01*
X027752Y008366D02*
X027918Y008366D01*
X027918Y008358D02*
X027752Y008358D01*
X027752Y008349D02*
X027918Y008349D01*
X027918Y008341D02*
X027752Y008341D01*
X027752Y008332D02*
X027918Y008332D01*
X027918Y008324D02*
X027752Y008324D01*
X027752Y008315D02*
X027918Y008315D01*
X027918Y008307D02*
X027752Y008307D01*
X027752Y008298D02*
X027918Y008298D01*
X027918Y008290D02*
X027752Y008290D01*
X027752Y008281D02*
X027918Y008281D01*
X027918Y008273D02*
X027752Y008273D01*
X027752Y008392D02*
X027918Y008392D01*
X027918Y008400D02*
X027752Y008400D01*
X027752Y008409D02*
X027918Y008409D01*
X027918Y008417D02*
X027752Y008417D01*
X027752Y008426D02*
X027918Y008426D01*
X027918Y008434D02*
X027752Y008434D01*
X027752Y008443D02*
X027918Y008443D01*
X027918Y008451D02*
X027752Y008451D01*
X027752Y008460D02*
X027918Y008460D01*
X027918Y008468D02*
X027752Y008468D01*
X027752Y008477D02*
X027918Y008477D01*
X027918Y008485D02*
X027752Y008485D01*
X027752Y008494D02*
X027918Y008494D01*
X027918Y008502D02*
X027752Y008502D01*
X027752Y008511D02*
X027918Y008511D01*
X027918Y008519D02*
X027752Y008519D01*
X027752Y008528D02*
X027918Y008528D01*
X027918Y008536D02*
X027752Y008536D01*
X027752Y008545D02*
X027918Y008545D01*
X027918Y008553D02*
X027752Y008553D01*
X027752Y008562D02*
X027918Y008562D01*
X027918Y008570D02*
X027752Y008570D01*
X027752Y008579D02*
X027918Y008579D01*
X027918Y008587D02*
X027752Y008587D01*
X027752Y008596D02*
X027918Y008596D01*
X027918Y008604D02*
X027752Y008604D01*
X028330Y008691D02*
X028328Y008721D01*
X028324Y008751D01*
X028317Y008780D01*
X028329Y008689D02*
X028165Y008689D01*
X028166Y008681D02*
X028329Y008681D01*
X028329Y008672D02*
X028167Y008672D01*
X028168Y008664D02*
X028329Y008664D01*
X028271Y008854D02*
X028254Y008870D01*
X028234Y008883D01*
X028212Y008893D01*
X028190Y008899D01*
X028167Y008903D01*
X027971Y008863D02*
X027953Y008847D01*
X027937Y008828D01*
X027921Y008807D02*
X027918Y008805D01*
X027914Y008804D01*
X027922Y008806D02*
X027927Y008812D01*
X027967Y008754D02*
X027981Y008764D01*
X027996Y008772D01*
X028012Y008777D01*
X028030Y008779D01*
X028073Y008781D02*
X028086Y008780D01*
X028099Y008777D01*
X028088Y008906D02*
X028063Y008903D01*
X028038Y008897D01*
X028015Y008889D01*
X027992Y008877D01*
X027972Y008863D01*
X028099Y008777D02*
X028113Y008770D01*
X028126Y008762D01*
X028136Y008751D01*
X028145Y008739D01*
X027930Y008703D02*
X027924Y008683D01*
X027920Y008662D01*
X027918Y008641D01*
X028145Y008739D02*
X028155Y008719D01*
X028162Y008699D01*
X028167Y008678D01*
X028168Y008656D01*
X027967Y008754D02*
X027952Y008739D01*
X027940Y008722D01*
X027931Y008703D01*
X027466Y008332D02*
X027118Y008332D01*
X027125Y008324D02*
X027457Y008324D01*
X027448Y008315D02*
X027131Y008315D01*
X027138Y008307D02*
X027439Y008307D01*
X027428Y008298D02*
X027148Y008298D01*
X027162Y008290D02*
X027416Y008290D01*
X027404Y008281D02*
X027177Y008281D01*
X027198Y008273D02*
X027389Y008273D01*
X027346Y008264D02*
X027226Y008264D01*
X027293Y008400D02*
X027086Y008400D01*
X027088Y008392D02*
X027314Y008392D01*
X027280Y008409D02*
X027084Y008409D01*
X027081Y008417D02*
X027271Y008417D01*
X027264Y008426D02*
X027079Y008426D01*
X027078Y008434D02*
X027258Y008434D01*
X027254Y008443D02*
X027078Y008443D01*
X027077Y008451D02*
X027250Y008451D01*
X027246Y008460D02*
X027076Y008460D01*
X027075Y008468D02*
X027244Y008468D01*
X027242Y008477D02*
X027075Y008477D01*
X027075Y008485D02*
X027241Y008485D01*
X027239Y008494D02*
X027075Y008494D01*
X027075Y008502D02*
X027238Y008502D01*
X027238Y008511D02*
X027075Y008511D01*
X027075Y008519D02*
X027238Y008519D01*
X027238Y008528D02*
X027075Y008528D01*
X027075Y008536D02*
X027238Y008536D01*
X027238Y008545D02*
X027075Y008545D01*
X027075Y008553D02*
X027238Y008553D01*
X027238Y008562D02*
X027075Y008562D01*
X027075Y008570D02*
X027238Y008570D01*
X027238Y008579D02*
X027075Y008579D01*
X027075Y008587D02*
X027238Y008587D01*
X027238Y008596D02*
X027075Y008596D01*
X027075Y008604D02*
X027238Y008604D01*
X027238Y008613D02*
X027075Y008613D01*
X027075Y008621D02*
X027238Y008621D01*
X027238Y008630D02*
X027075Y008630D01*
X027075Y008638D02*
X027238Y008638D01*
X027238Y008647D02*
X027075Y008647D01*
X027075Y008655D02*
X027238Y008655D01*
X027238Y008664D02*
X027075Y008664D01*
X027075Y008672D02*
X027238Y008672D01*
X027238Y008681D02*
X027075Y008681D01*
X027075Y008689D02*
X027238Y008689D01*
X027238Y008698D02*
X027075Y008698D01*
X027075Y008706D02*
X027238Y008706D01*
X027238Y008715D02*
X027075Y008715D01*
X027075Y008723D02*
X027238Y008723D01*
X027238Y008732D02*
X027075Y008732D01*
X027075Y008740D02*
X027238Y008740D01*
X027238Y008749D02*
X027075Y008749D01*
X027075Y008757D02*
X027238Y008757D01*
X027238Y008766D02*
X027075Y008766D01*
X027075Y008774D02*
X027238Y008774D01*
X027238Y008783D02*
X027075Y008783D01*
X027075Y008791D02*
X027238Y008791D01*
X027238Y008800D02*
X027075Y008800D01*
X027075Y008808D02*
X027238Y008808D01*
X027238Y008817D02*
X027075Y008817D01*
X027075Y008825D02*
X027238Y008825D01*
X027238Y008834D02*
X027075Y008834D01*
X027075Y008842D02*
X027238Y008842D01*
X027238Y008851D02*
X027075Y008851D01*
X027075Y008859D02*
X027238Y008859D01*
X027238Y008868D02*
X027075Y008868D01*
X027075Y008876D02*
X027238Y008876D01*
X027238Y008885D02*
X027075Y008885D01*
X027017Y008885D02*
X026678Y008885D01*
X026683Y008890D02*
X026737Y008890D01*
X026737Y008908D01*
X026744Y008992D01*
X026750Y009014D01*
X026760Y009035D01*
X026773Y009054D01*
X026803Y009082D01*
X026837Y009104D01*
X026874Y009118D01*
X026914Y009125D01*
X026975Y009125D01*
X027027Y009122D01*
X027028Y009122D01*
X027028Y009003D01*
X027025Y009003D01*
X027014Y009004D01*
X026978Y009007D01*
X026941Y009004D01*
X026929Y009000D01*
X026918Y008992D01*
X026910Y008982D01*
X026903Y008964D01*
X026900Y008945D01*
X026900Y008890D01*
X027017Y008890D01*
X027017Y008785D01*
X026899Y008785D01*
X026899Y008272D01*
X026735Y008272D01*
X026735Y008784D01*
X026578Y008785D01*
X026683Y008890D01*
X026669Y008876D02*
X027017Y008876D01*
X027017Y008868D02*
X026661Y008868D01*
X026652Y008859D02*
X027017Y008859D01*
X027017Y008851D02*
X026644Y008851D01*
X026635Y008842D02*
X027017Y008842D01*
X027017Y008834D02*
X026627Y008834D01*
X026618Y008825D02*
X027017Y008825D01*
X027017Y008817D02*
X026610Y008817D01*
X026601Y008808D02*
X027017Y008808D01*
X027017Y008800D02*
X026593Y008800D01*
X026584Y008791D02*
X027017Y008791D01*
X026899Y008783D02*
X026735Y008783D01*
X026735Y008774D02*
X026899Y008774D01*
X026899Y008766D02*
X026735Y008766D01*
X026735Y008757D02*
X026899Y008757D01*
X026899Y008749D02*
X026735Y008749D01*
X026735Y008740D02*
X026899Y008740D01*
X026899Y008732D02*
X026735Y008732D01*
X026735Y008723D02*
X026899Y008723D01*
X026899Y008715D02*
X026735Y008715D01*
X026735Y008706D02*
X026899Y008706D01*
X026899Y008698D02*
X026735Y008698D01*
X026735Y008689D02*
X026899Y008689D01*
X026899Y008681D02*
X026735Y008681D01*
X026735Y008672D02*
X026899Y008672D01*
X026899Y008664D02*
X026735Y008664D01*
X026735Y008655D02*
X026899Y008655D01*
X026899Y008647D02*
X026735Y008647D01*
X026735Y008638D02*
X026899Y008638D01*
X026899Y008630D02*
X026735Y008630D01*
X026735Y008621D02*
X026899Y008621D01*
X026899Y008613D02*
X026735Y008613D01*
X026735Y008604D02*
X026899Y008604D01*
X026899Y008596D02*
X026735Y008596D01*
X026735Y008587D02*
X026899Y008587D01*
X026899Y008579D02*
X026735Y008579D01*
X026735Y008570D02*
X026899Y008570D01*
X026899Y008562D02*
X026735Y008562D01*
X026735Y008553D02*
X026899Y008553D01*
X026899Y008545D02*
X026735Y008545D01*
X026735Y008536D02*
X026899Y008536D01*
X026899Y008528D02*
X026735Y008528D01*
X026735Y008519D02*
X026899Y008519D01*
X026899Y008511D02*
X026735Y008511D01*
X026735Y008502D02*
X026899Y008502D01*
X026899Y008494D02*
X026735Y008494D01*
X026735Y008485D02*
X026899Y008485D01*
X026899Y008477D02*
X026735Y008477D01*
X026735Y008468D02*
X026899Y008468D01*
X026899Y008460D02*
X026735Y008460D01*
X026735Y008451D02*
X026899Y008451D01*
X026899Y008443D02*
X026735Y008443D01*
X026735Y008434D02*
X026899Y008434D01*
X026899Y008426D02*
X026735Y008426D01*
X026735Y008417D02*
X026899Y008417D01*
X026899Y008409D02*
X026735Y008409D01*
X026735Y008400D02*
X026899Y008400D01*
X026899Y008392D02*
X026735Y008392D01*
X026735Y008383D02*
X026899Y008383D01*
X026899Y008375D02*
X026735Y008375D01*
X026735Y008366D02*
X026899Y008366D01*
X026899Y008358D02*
X026735Y008358D01*
X026735Y008349D02*
X026899Y008349D01*
X026899Y008341D02*
X026735Y008341D01*
X026735Y008332D02*
X026899Y008332D01*
X026899Y008324D02*
X026735Y008324D01*
X026735Y008315D02*
X026899Y008315D01*
X026899Y008307D02*
X026735Y008307D01*
X026735Y008298D02*
X026899Y008298D01*
X026899Y008290D02*
X026735Y008290D01*
X026735Y008281D02*
X026899Y008281D01*
X026899Y008273D02*
X026735Y008273D01*
X026622Y008274D02*
X026360Y008667D01*
X026587Y008889D01*
X026403Y008889D01*
X026179Y008665D01*
X026179Y009127D01*
X026016Y009034D01*
X026016Y008273D01*
X026018Y008271D01*
X026181Y008271D01*
X026181Y008486D01*
X026252Y008555D01*
X026254Y008552D01*
X026422Y008275D01*
X026622Y008274D01*
X026618Y008281D02*
X026419Y008281D01*
X026413Y008290D02*
X026612Y008290D01*
X026606Y008298D02*
X026408Y008298D01*
X026403Y008307D02*
X026601Y008307D01*
X026595Y008315D02*
X026398Y008315D01*
X026393Y008324D02*
X026589Y008324D01*
X026584Y008332D02*
X026388Y008332D01*
X026383Y008341D02*
X026578Y008341D01*
X026572Y008349D02*
X026377Y008349D01*
X026372Y008358D02*
X026567Y008358D01*
X026561Y008366D02*
X026367Y008366D01*
X026362Y008375D02*
X026555Y008375D01*
X026550Y008383D02*
X026357Y008383D01*
X026352Y008392D02*
X026544Y008392D01*
X026538Y008400D02*
X026346Y008400D01*
X026341Y008409D02*
X026533Y008409D01*
X026527Y008417D02*
X026336Y008417D01*
X026331Y008426D02*
X026521Y008426D01*
X026516Y008434D02*
X026326Y008434D01*
X026321Y008443D02*
X026510Y008443D01*
X026504Y008451D02*
X026316Y008451D01*
X026310Y008460D02*
X026499Y008460D01*
X026493Y008468D02*
X026305Y008468D01*
X026300Y008477D02*
X026487Y008477D01*
X026482Y008485D02*
X026295Y008485D01*
X026290Y008494D02*
X026476Y008494D01*
X026470Y008502D02*
X026285Y008502D01*
X026279Y008511D02*
X026465Y008511D01*
X026459Y008519D02*
X026274Y008519D01*
X026269Y008528D02*
X026453Y008528D01*
X026448Y008536D02*
X026264Y008536D01*
X026259Y008545D02*
X026442Y008545D01*
X026436Y008553D02*
X026254Y008553D01*
X026250Y008553D02*
X026016Y008553D01*
X026016Y008545D02*
X026242Y008545D01*
X026233Y008536D02*
X026016Y008536D01*
X026016Y008528D02*
X026224Y008528D01*
X026215Y008519D02*
X026016Y008519D01*
X026016Y008511D02*
X026207Y008511D01*
X026198Y008502D02*
X026016Y008502D01*
X026016Y008494D02*
X026189Y008494D01*
X026181Y008485D02*
X026016Y008485D01*
X026016Y008477D02*
X026181Y008477D01*
X026181Y008468D02*
X026016Y008468D01*
X026016Y008460D02*
X026181Y008460D01*
X026181Y008451D02*
X026016Y008451D01*
X026016Y008443D02*
X026181Y008443D01*
X026181Y008434D02*
X026016Y008434D01*
X026016Y008426D02*
X026181Y008426D01*
X026181Y008417D02*
X026016Y008417D01*
X026016Y008409D02*
X026181Y008409D01*
X026181Y008400D02*
X026016Y008400D01*
X026016Y008392D02*
X026181Y008392D01*
X026181Y008383D02*
X026016Y008383D01*
X026016Y008375D02*
X026181Y008375D01*
X026181Y008366D02*
X026016Y008366D01*
X026016Y008358D02*
X026181Y008358D01*
X026181Y008349D02*
X026016Y008349D01*
X026016Y008341D02*
X026181Y008341D01*
X026181Y008332D02*
X026016Y008332D01*
X026016Y008324D02*
X026181Y008324D01*
X026181Y008315D02*
X026016Y008315D01*
X026016Y008307D02*
X026181Y008307D01*
X026181Y008298D02*
X026016Y008298D01*
X026016Y008290D02*
X026181Y008290D01*
X026181Y008281D02*
X026016Y008281D01*
X026017Y008273D02*
X026181Y008273D01*
X026016Y008562D02*
X026431Y008562D01*
X026425Y008570D02*
X026016Y008570D01*
X026016Y008579D02*
X026419Y008579D01*
X026414Y008587D02*
X026016Y008587D01*
X026016Y008596D02*
X026408Y008596D01*
X026402Y008604D02*
X026016Y008604D01*
X026016Y008613D02*
X026397Y008613D01*
X026391Y008621D02*
X026016Y008621D01*
X026016Y008630D02*
X026385Y008630D01*
X026380Y008638D02*
X026016Y008638D01*
X026016Y008647D02*
X026374Y008647D01*
X026368Y008655D02*
X026016Y008655D01*
X026016Y008664D02*
X026363Y008664D01*
X026366Y008672D02*
X026186Y008672D01*
X026179Y008672D02*
X026016Y008672D01*
X026016Y008681D02*
X026179Y008681D01*
X026179Y008689D02*
X026016Y008689D01*
X026016Y008698D02*
X026179Y008698D01*
X026179Y008706D02*
X026016Y008706D01*
X026016Y008715D02*
X026179Y008715D01*
X026179Y008723D02*
X026016Y008723D01*
X026016Y008732D02*
X026179Y008732D01*
X026179Y008740D02*
X026016Y008740D01*
X026016Y008749D02*
X026179Y008749D01*
X026179Y008757D02*
X026016Y008757D01*
X026016Y008766D02*
X026179Y008766D01*
X026179Y008774D02*
X026016Y008774D01*
X026016Y008783D02*
X026179Y008783D01*
X026179Y008791D02*
X026016Y008791D01*
X026016Y008800D02*
X026179Y008800D01*
X026179Y008808D02*
X026016Y008808D01*
X026016Y008817D02*
X026179Y008817D01*
X026179Y008825D02*
X026016Y008825D01*
X026016Y008834D02*
X026179Y008834D01*
X026179Y008842D02*
X026016Y008842D01*
X026016Y008851D02*
X026179Y008851D01*
X026179Y008859D02*
X026016Y008859D01*
X026016Y008868D02*
X026179Y008868D01*
X026179Y008876D02*
X026016Y008876D01*
X026016Y008885D02*
X026179Y008885D01*
X026179Y008893D02*
X026016Y008893D01*
X026016Y008902D02*
X026179Y008902D01*
X026179Y008910D02*
X026016Y008910D01*
X026016Y008919D02*
X026179Y008919D01*
X026179Y008927D02*
X026016Y008927D01*
X026016Y008936D02*
X026179Y008936D01*
X026179Y008944D02*
X026016Y008944D01*
X026016Y008953D02*
X026179Y008953D01*
X026179Y008961D02*
X026016Y008961D01*
X026016Y008970D02*
X026179Y008970D01*
X026179Y008978D02*
X026016Y008978D01*
X026016Y008987D02*
X026179Y008987D01*
X026179Y008995D02*
X026016Y008995D01*
X026016Y009004D02*
X026179Y009004D01*
X026179Y009012D02*
X026016Y009012D01*
X026016Y009021D02*
X026179Y009021D01*
X026179Y009029D02*
X026016Y009029D01*
X026023Y009038D02*
X026179Y009038D01*
X026179Y009046D02*
X026038Y009046D01*
X026052Y009055D02*
X026179Y009055D01*
X026179Y009063D02*
X026067Y009063D01*
X026082Y009072D02*
X026179Y009072D01*
X026179Y009080D02*
X026097Y009080D01*
X026112Y009089D02*
X026179Y009089D01*
X026179Y009097D02*
X026127Y009097D01*
X026142Y009106D02*
X026179Y009106D01*
X026179Y009114D02*
X026157Y009114D01*
X026172Y009123D02*
X026179Y009123D01*
X026372Y009123D02*
X026449Y009123D01*
X026457Y009131D02*
X026372Y009131D01*
X026372Y009140D02*
X026464Y009140D01*
X026472Y009148D02*
X026372Y009148D01*
X026372Y009157D02*
X026480Y009157D01*
X026487Y009165D02*
X026372Y009165D01*
X026372Y009174D02*
X026495Y009174D01*
X026502Y009182D02*
X026372Y009182D01*
X026372Y009191D02*
X026510Y009191D01*
X026517Y009199D02*
X026372Y009199D01*
X026372Y009208D02*
X026525Y009208D01*
X026532Y009216D02*
X026372Y009216D01*
X026372Y009225D02*
X026540Y009225D01*
X026548Y009233D02*
X026372Y009233D01*
X026372Y009242D02*
X026555Y009242D01*
X026563Y009250D02*
X026372Y009250D01*
X026372Y009259D02*
X026572Y009259D01*
X026564Y009252D02*
X026598Y009283D01*
X026638Y009307D01*
X026653Y009312D01*
X026668Y009315D01*
X026758Y009315D01*
X026812Y009320D01*
X026864Y009334D01*
X026912Y009358D01*
X026958Y009390D01*
X026999Y009428D01*
X027033Y009472D01*
X027071Y009538D01*
X027095Y009610D01*
X027107Y009685D01*
X027104Y009761D01*
X027096Y009802D01*
X027082Y009841D01*
X027062Y009878D01*
X027027Y009923D01*
X026982Y009959D01*
X026982Y009924D01*
X026982Y009918D01*
X026979Y009913D01*
X026968Y009899D01*
X026952Y009888D01*
X026944Y009885D01*
X026922Y009883D01*
X026899Y009887D01*
X026879Y009897D01*
X026843Y009923D01*
X026827Y009937D01*
X026812Y009954D01*
X026801Y009973D01*
X026792Y009993D01*
X026790Y010006D01*
X026790Y010019D01*
X026797Y010041D01*
X026809Y010060D01*
X026825Y010075D01*
X026845Y010086D01*
X026866Y010092D01*
X026886Y010094D01*
X026910Y010094D01*
X026909Y010095D01*
X026892Y010108D01*
X026872Y010117D01*
X026692Y010117D01*
X026681Y010112D02*
X026651Y010090D01*
X026623Y010064D01*
X026606Y010040D01*
X026596Y010013D01*
X026592Y009984D01*
X026596Y009955D01*
X026607Y009928D01*
X026654Y009859D01*
X026711Y009798D01*
X026726Y009780D01*
X026736Y009759D01*
X026741Y009736D01*
X026739Y009713D01*
X026731Y009691D01*
X026718Y009672D01*
X026700Y009657D01*
X026678Y009645D01*
X026654Y009637D01*
X026629Y009633D01*
X026600Y009634D01*
X026572Y009643D01*
X026547Y009658D01*
X026374Y009658D01*
X026375Y009666D02*
X026372Y009633D01*
X026372Y009036D01*
X026564Y009252D01*
X026581Y009267D02*
X026372Y009267D01*
X026372Y009276D02*
X026590Y009276D01*
X026600Y009284D02*
X026372Y009284D01*
X026372Y009293D02*
X026614Y009293D01*
X026628Y009301D02*
X026372Y009301D01*
X026372Y009310D02*
X026646Y009310D01*
X026793Y009318D02*
X026372Y009318D01*
X026372Y009327D02*
X026836Y009327D01*
X026865Y009335D02*
X026372Y009335D01*
X026372Y009344D02*
X026883Y009344D01*
X026900Y009352D02*
X026372Y009352D01*
X026372Y009361D02*
X026916Y009361D01*
X026928Y009369D02*
X026372Y009369D01*
X026372Y009378D02*
X026940Y009378D01*
X026952Y009386D02*
X026372Y009386D01*
X026372Y009395D02*
X026963Y009395D01*
X026972Y009403D02*
X026372Y009403D01*
X026372Y009412D02*
X026981Y009412D01*
X026990Y009420D02*
X026372Y009420D01*
X026372Y009429D02*
X026999Y009429D01*
X027005Y009437D02*
X026372Y009437D01*
X026372Y009446D02*
X027012Y009446D01*
X027019Y009454D02*
X026372Y009454D01*
X026372Y009463D02*
X027026Y009463D01*
X027033Y009471D02*
X026372Y009471D01*
X026372Y009480D02*
X027038Y009480D01*
X027042Y009488D02*
X026372Y009488D01*
X026372Y009497D02*
X027047Y009497D01*
X027052Y009505D02*
X026372Y009505D01*
X026372Y009514D02*
X027057Y009514D01*
X027062Y009522D02*
X026372Y009522D01*
X026372Y009531D02*
X027066Y009531D01*
X027071Y009539D02*
X026372Y009539D01*
X026372Y009548D02*
X027074Y009548D01*
X027077Y009556D02*
X026372Y009556D01*
X026372Y009565D02*
X027080Y009565D01*
X027083Y009573D02*
X026372Y009573D01*
X026372Y009582D02*
X027086Y009582D01*
X027088Y009590D02*
X026372Y009590D01*
X026372Y009599D02*
X027091Y009599D01*
X027094Y009607D02*
X026372Y009607D01*
X026372Y009616D02*
X027096Y009616D01*
X027097Y009624D02*
X026372Y009624D01*
X026372Y009633D02*
X027099Y009633D01*
X027100Y009641D02*
X026667Y009641D01*
X026687Y009650D02*
X027101Y009650D01*
X027103Y009658D02*
X026702Y009658D01*
X026712Y009667D02*
X027104Y009667D01*
X027105Y009675D02*
X026720Y009675D01*
X026726Y009684D02*
X027106Y009684D01*
X027106Y009692D02*
X026731Y009692D01*
X026734Y009701D02*
X027106Y009701D01*
X027106Y009709D02*
X026737Y009709D01*
X026739Y009718D02*
X027106Y009718D01*
X027105Y009726D02*
X026740Y009726D01*
X026741Y009735D02*
X027105Y009735D01*
X027105Y009743D02*
X026739Y009743D01*
X026738Y009752D02*
X027105Y009752D01*
X027104Y009760D02*
X026736Y009760D01*
X026732Y009769D02*
X027103Y009769D01*
X027101Y009777D02*
X026728Y009777D01*
X026722Y009786D02*
X027099Y009786D01*
X027098Y009794D02*
X026715Y009794D01*
X026707Y009803D02*
X027096Y009803D01*
X027093Y009811D02*
X026699Y009811D01*
X026691Y009820D02*
X027090Y009820D01*
X027087Y009828D02*
X026683Y009828D01*
X026675Y009837D02*
X027084Y009837D01*
X027080Y009845D02*
X026667Y009845D01*
X026659Y009854D02*
X027075Y009854D01*
X027071Y009862D02*
X026652Y009862D01*
X026646Y009871D02*
X027066Y009871D01*
X027061Y009879D02*
X026640Y009879D01*
X026635Y009888D02*
X026898Y009888D01*
X026881Y009896D02*
X026629Y009896D01*
X026623Y009905D02*
X026869Y009905D01*
X026857Y009913D02*
X026617Y009913D01*
X026612Y009922D02*
X026845Y009922D01*
X026835Y009930D02*
X026606Y009930D01*
X026603Y009939D02*
X026826Y009939D01*
X026818Y009947D02*
X026600Y009947D01*
X026596Y009956D02*
X026811Y009956D01*
X026806Y009964D02*
X026595Y009964D01*
X026594Y009973D02*
X026801Y009973D01*
X026797Y009981D02*
X026593Y009981D01*
X026593Y009990D02*
X026794Y009990D01*
X026791Y009998D02*
X026594Y009998D01*
X026595Y010007D02*
X026790Y010007D01*
X026790Y010015D02*
X026597Y010015D01*
X026600Y010024D02*
X026792Y010024D01*
X026794Y010032D02*
X026603Y010032D01*
X026607Y010041D02*
X026797Y010041D01*
X026802Y010049D02*
X026613Y010049D01*
X026619Y010058D02*
X026807Y010058D01*
X026815Y010066D02*
X026626Y010066D01*
X026635Y010075D02*
X026825Y010075D01*
X026840Y010083D02*
X026644Y010083D01*
X026653Y010092D02*
X026865Y010092D01*
X026872Y010117D02*
X026858Y010123D01*
X026849Y010127D01*
X026815Y010136D01*
X026779Y010139D01*
X026745Y010136D01*
X026712Y010127D01*
X026681Y010112D01*
X026677Y010109D02*
X026891Y010109D01*
X026903Y010100D02*
X026665Y010100D01*
X026709Y010126D02*
X026852Y010126D01*
X026821Y010134D02*
X026737Y010134D01*
X026910Y010094D02*
X026910Y010094D01*
X026982Y009956D02*
X026986Y009956D01*
X026982Y009947D02*
X026997Y009947D01*
X027007Y009939D02*
X026982Y009939D01*
X026982Y009930D02*
X027018Y009930D01*
X027028Y009922D02*
X026982Y009922D01*
X026979Y009913D02*
X027034Y009913D01*
X027041Y009905D02*
X026973Y009905D01*
X026964Y009896D02*
X027048Y009896D01*
X027055Y009888D02*
X026951Y009888D01*
X026587Y009782D02*
X026580Y009783D01*
X026574Y009781D01*
X026567Y009778D01*
X026534Y009754D01*
X026529Y009749D01*
X026525Y009742D01*
X026521Y009724D01*
X026521Y009707D01*
X026525Y009689D01*
X026534Y009672D01*
X026547Y009658D01*
X026539Y009667D02*
X026375Y009667D01*
X026375Y009666D02*
X026385Y009697D01*
X026400Y009726D01*
X026419Y009748D01*
X026441Y009765D01*
X026467Y009778D01*
X026494Y009785D01*
X026531Y009788D01*
X026568Y009785D01*
X026587Y009782D01*
X026566Y009777D02*
X026466Y009777D01*
X026448Y009769D02*
X026554Y009769D01*
X026543Y009760D02*
X026435Y009760D01*
X026424Y009752D02*
X026532Y009752D01*
X026526Y009743D02*
X026415Y009743D01*
X026408Y009735D02*
X026524Y009735D01*
X026522Y009726D02*
X026400Y009726D01*
X026396Y009718D02*
X026521Y009718D01*
X026521Y009709D02*
X026391Y009709D01*
X026386Y009701D02*
X026523Y009701D01*
X026525Y009692D02*
X026383Y009692D01*
X026380Y009684D02*
X026528Y009684D01*
X026532Y009675D02*
X026378Y009675D01*
X026374Y009650D02*
X026561Y009650D01*
X026578Y009641D02*
X026373Y009641D01*
X026502Y009786D02*
X026560Y009786D01*
X026442Y009114D02*
X026372Y009114D01*
X026372Y009106D02*
X026434Y009106D01*
X026427Y009097D02*
X026372Y009097D01*
X026372Y009089D02*
X026419Y009089D01*
X026412Y009080D02*
X026372Y009080D01*
X026372Y009072D02*
X026404Y009072D01*
X026396Y009063D02*
X026372Y009063D01*
X026372Y009055D02*
X026389Y009055D01*
X026381Y009046D02*
X026372Y009046D01*
X026372Y009038D02*
X026374Y009038D01*
X026399Y008885D02*
X026583Y008885D01*
X026574Y008876D02*
X026390Y008876D01*
X026382Y008868D02*
X026565Y008868D01*
X026557Y008859D02*
X026373Y008859D01*
X026365Y008851D02*
X026548Y008851D01*
X026539Y008842D02*
X026356Y008842D01*
X026348Y008834D02*
X026531Y008834D01*
X026522Y008825D02*
X026339Y008825D01*
X026331Y008817D02*
X026513Y008817D01*
X026505Y008808D02*
X026322Y008808D01*
X026314Y008800D02*
X026496Y008800D01*
X026487Y008791D02*
X026305Y008791D01*
X026297Y008783D02*
X026479Y008783D01*
X026470Y008774D02*
X026288Y008774D01*
X026280Y008766D02*
X026461Y008766D01*
X026452Y008757D02*
X026271Y008757D01*
X026263Y008749D02*
X026444Y008749D01*
X026435Y008740D02*
X026254Y008740D01*
X026246Y008732D02*
X026426Y008732D01*
X026418Y008723D02*
X026237Y008723D01*
X026229Y008715D02*
X026409Y008715D01*
X026400Y008706D02*
X026220Y008706D01*
X026212Y008698D02*
X026392Y008698D01*
X026383Y008689D02*
X026203Y008689D01*
X026195Y008681D02*
X026374Y008681D01*
X026737Y008893D02*
X026900Y008893D01*
X026900Y008902D02*
X026737Y008902D01*
X026738Y008910D02*
X026900Y008910D01*
X026900Y008919D02*
X026738Y008919D01*
X026739Y008927D02*
X026900Y008927D01*
X026900Y008936D02*
X026740Y008936D01*
X026740Y008944D02*
X026900Y008944D01*
X026901Y008953D02*
X026741Y008953D01*
X026742Y008961D02*
X026903Y008961D01*
X026905Y008970D02*
X026742Y008970D01*
X026743Y008978D02*
X026909Y008978D01*
X026914Y008987D02*
X026744Y008987D01*
X026745Y008995D02*
X026922Y008995D01*
X026940Y009004D02*
X026747Y009004D01*
X026750Y009012D02*
X027028Y009012D01*
X027028Y009004D02*
X027019Y009004D01*
X027028Y009021D02*
X026753Y009021D01*
X026757Y009029D02*
X027028Y009029D01*
X027028Y009038D02*
X026762Y009038D01*
X026768Y009046D02*
X027028Y009046D01*
X027028Y009055D02*
X026774Y009055D01*
X026783Y009063D02*
X027028Y009063D01*
X027028Y009072D02*
X026792Y009072D01*
X026801Y009080D02*
X027028Y009080D01*
X027028Y009089D02*
X026813Y009089D01*
X026827Y009097D02*
X027028Y009097D01*
X027028Y009106D02*
X026842Y009106D01*
X026864Y009114D02*
X027028Y009114D01*
X027017Y009123D02*
X026900Y009123D01*
X025942Y008902D02*
X025942Y008750D01*
X025941Y008750D01*
X025935Y008751D01*
X025911Y008756D01*
X025850Y008756D01*
X025828Y008752D01*
X025807Y008745D01*
X025787Y008734D01*
X025760Y008711D01*
X025739Y008683D01*
X025724Y008651D01*
X025716Y008618D01*
X025713Y008584D01*
X025713Y008276D01*
X025549Y008276D01*
X025550Y008862D01*
X025702Y008889D01*
X025702Y008776D01*
X025706Y008774D01*
X025550Y008774D01*
X025550Y008766D02*
X025942Y008766D01*
X025942Y008774D02*
X025707Y008774D01*
X025706Y008774D02*
X025712Y008776D01*
X025720Y008788D01*
X025747Y008829D01*
X025760Y008844D01*
X025775Y008856D01*
X025810Y008879D01*
X025834Y008893D01*
X025861Y008902D01*
X025888Y008905D01*
X025942Y008902D01*
X025861Y008902D01*
X025835Y008893D02*
X025942Y008893D01*
X025942Y008885D02*
X025820Y008885D01*
X025806Y008876D02*
X025942Y008876D01*
X025942Y008868D02*
X025793Y008868D01*
X025780Y008859D02*
X025942Y008859D01*
X025942Y008851D02*
X025768Y008851D01*
X025758Y008842D02*
X025942Y008842D01*
X025942Y008834D02*
X025751Y008834D01*
X025745Y008825D02*
X025942Y008825D01*
X025942Y008817D02*
X025739Y008817D01*
X025734Y008808D02*
X025942Y008808D01*
X025942Y008800D02*
X025728Y008800D01*
X025722Y008791D02*
X025942Y008791D01*
X025942Y008783D02*
X025717Y008783D01*
X025702Y008783D02*
X025550Y008783D01*
X025550Y008791D02*
X025702Y008791D01*
X025702Y008800D02*
X025550Y008800D01*
X025550Y008808D02*
X025702Y008808D01*
X025702Y008817D02*
X025550Y008817D01*
X025550Y008825D02*
X025702Y008825D01*
X025702Y008834D02*
X025550Y008834D01*
X025550Y008842D02*
X025702Y008842D01*
X025702Y008851D02*
X025550Y008851D01*
X025550Y008859D02*
X025702Y008859D01*
X025702Y008868D02*
X025582Y008868D01*
X025630Y008876D02*
X025702Y008876D01*
X025702Y008885D02*
X025678Y008885D01*
X025550Y008757D02*
X025942Y008757D01*
X025818Y008749D02*
X025550Y008749D01*
X025550Y008740D02*
X025798Y008740D01*
X025784Y008732D02*
X025550Y008732D01*
X025550Y008723D02*
X025774Y008723D01*
X025764Y008715D02*
X025550Y008715D01*
X025550Y008706D02*
X025756Y008706D01*
X025750Y008698D02*
X025550Y008698D01*
X025550Y008689D02*
X025743Y008689D01*
X025738Y008681D02*
X025550Y008681D01*
X025550Y008672D02*
X025734Y008672D01*
X025730Y008664D02*
X025550Y008664D01*
X025550Y008655D02*
X025726Y008655D01*
X025723Y008647D02*
X025550Y008647D01*
X025550Y008638D02*
X025721Y008638D01*
X025719Y008630D02*
X025550Y008630D01*
X025550Y008621D02*
X025717Y008621D01*
X025716Y008613D02*
X025550Y008613D01*
X025550Y008604D02*
X025715Y008604D01*
X025714Y008596D02*
X025550Y008596D01*
X025550Y008587D02*
X025714Y008587D01*
X025713Y008579D02*
X025550Y008579D01*
X025550Y008570D02*
X025713Y008570D01*
X025713Y008562D02*
X025550Y008562D01*
X025550Y008553D02*
X025713Y008553D01*
X025713Y008545D02*
X025550Y008545D01*
X025550Y008536D02*
X025713Y008536D01*
X025713Y008528D02*
X025550Y008528D01*
X025550Y008519D02*
X025713Y008519D01*
X025713Y008511D02*
X025550Y008511D01*
X025550Y008502D02*
X025713Y008502D01*
X025713Y008494D02*
X025550Y008494D01*
X025550Y008485D02*
X025713Y008485D01*
X025713Y008477D02*
X025550Y008477D01*
X025550Y008468D02*
X025713Y008468D01*
X025713Y008460D02*
X025550Y008460D01*
X025550Y008451D02*
X025713Y008451D01*
X025713Y008443D02*
X025550Y008443D01*
X025550Y008434D02*
X025713Y008434D01*
X025713Y008426D02*
X025550Y008426D01*
X025550Y008417D02*
X025713Y008417D01*
X025713Y008409D02*
X025550Y008409D01*
X025550Y008400D02*
X025713Y008400D01*
X025713Y008392D02*
X025550Y008392D01*
X025550Y008383D02*
X025713Y008383D01*
X025713Y008375D02*
X025549Y008375D01*
X025549Y008366D02*
X025713Y008366D01*
X025713Y008358D02*
X025549Y008358D01*
X025549Y008349D02*
X025713Y008349D01*
X025713Y008341D02*
X025549Y008341D01*
X025549Y008332D02*
X025713Y008332D01*
X025713Y008324D02*
X025549Y008324D01*
X025549Y008315D02*
X025713Y008315D01*
X025713Y008307D02*
X025549Y008307D01*
X025549Y008298D02*
X025713Y008298D01*
X025713Y008290D02*
X025549Y008290D01*
X025549Y008281D02*
X025713Y008281D01*
X025463Y008276D02*
X025460Y008284D01*
X025446Y008336D01*
X025442Y008389D01*
X025443Y008560D01*
X025282Y008560D01*
X025282Y008527D01*
X025280Y008484D01*
X025271Y008441D01*
X025269Y008434D01*
X025265Y008423D01*
X025258Y008414D01*
X025228Y008385D01*
X025216Y008377D01*
X025202Y008372D01*
X025160Y008366D01*
X025099Y008368D01*
X025080Y008372D01*
X025062Y008381D01*
X025047Y008393D01*
X025039Y008404D01*
X025033Y008416D01*
X025030Y008429D01*
X025030Y008453D01*
X025034Y008477D01*
X025043Y008499D01*
X025052Y008512D01*
X025063Y008522D01*
X025083Y008534D01*
X025104Y008542D01*
X025126Y008546D01*
X025183Y008552D01*
X025222Y008559D01*
X025260Y008570D01*
X025268Y008574D01*
X025275Y008580D01*
X025280Y008588D01*
X025282Y008588D01*
X025282Y008564D01*
X025442Y008564D01*
X025442Y008754D01*
X025439Y008783D01*
X025428Y008810D01*
X025411Y008834D01*
X025389Y008853D01*
X025338Y008880D01*
X025282Y008897D01*
X025214Y008906D01*
X025145Y008906D01*
X025076Y008898D01*
X025028Y008885D01*
X024982Y008864D01*
X024950Y008841D01*
X024923Y008813D01*
X024903Y008779D01*
X024890Y008742D01*
X024884Y008703D01*
X024883Y008704D01*
X025050Y008704D01*
X025050Y008706D01*
X025053Y008728D01*
X025061Y008748D01*
X025073Y008767D01*
X025089Y008781D01*
X025108Y008792D01*
X025131Y008799D01*
X025155Y008801D01*
X025209Y008799D01*
X025225Y008796D01*
X025239Y008791D01*
X025436Y008791D01*
X025439Y008783D02*
X025253Y008783D01*
X025252Y008783D02*
X025263Y008773D01*
X025271Y008761D01*
X025277Y008748D01*
X025282Y008726D01*
X025282Y008704D01*
X025277Y008683D01*
X025275Y008678D01*
X025272Y008674D01*
X025260Y008663D01*
X025243Y008653D01*
X025223Y008646D01*
X025171Y008637D01*
X025084Y008628D01*
X025024Y008617D01*
X024965Y008598D01*
X024938Y008584D01*
X024914Y008564D01*
X024894Y008540D01*
X024877Y008506D01*
X024869Y008469D01*
X024869Y008427D01*
X024877Y008386D01*
X024891Y008347D01*
X024903Y008328D01*
X024918Y008311D01*
X024935Y008298D01*
X025233Y008298D01*
X025246Y008305D02*
X025278Y008333D01*
X025280Y008334D01*
X025283Y008335D01*
X025285Y008334D01*
X025287Y008332D01*
X025447Y008332D01*
X025446Y008341D02*
X024895Y008341D01*
X024891Y008349D02*
X025445Y008349D01*
X025445Y008358D02*
X024887Y008358D01*
X024884Y008366D02*
X025157Y008366D01*
X025161Y008366D02*
X025444Y008366D01*
X025443Y008375D02*
X025209Y008375D01*
X025225Y008383D02*
X025443Y008383D01*
X025442Y008392D02*
X025235Y008392D01*
X025244Y008400D02*
X025442Y008400D01*
X025442Y008409D02*
X025253Y008409D01*
X025260Y008417D02*
X025443Y008417D01*
X025443Y008426D02*
X025266Y008426D01*
X025269Y008434D02*
X025443Y008434D01*
X025443Y008443D02*
X025272Y008443D01*
X025273Y008451D02*
X025443Y008451D01*
X025443Y008460D02*
X025275Y008460D01*
X025277Y008468D02*
X025443Y008468D01*
X025443Y008477D02*
X025278Y008477D01*
X025280Y008485D02*
X025443Y008485D01*
X025443Y008494D02*
X025280Y008494D01*
X025281Y008502D02*
X025443Y008502D01*
X025443Y008511D02*
X025281Y008511D01*
X025282Y008519D02*
X025443Y008519D01*
X025443Y008528D02*
X025282Y008528D01*
X025282Y008536D02*
X025443Y008536D01*
X025443Y008545D02*
X025282Y008545D01*
X025282Y008553D02*
X025443Y008553D01*
X025442Y008570D02*
X025282Y008570D01*
X025282Y008579D02*
X025442Y008579D01*
X025442Y008587D02*
X025282Y008587D01*
X025280Y008587D02*
X024945Y008587D01*
X024932Y008579D02*
X025273Y008579D01*
X025261Y008570D02*
X024921Y008570D01*
X024912Y008562D02*
X025232Y008562D01*
X025190Y008553D02*
X024905Y008553D01*
X024898Y008545D02*
X025119Y008545D01*
X025089Y008536D02*
X024892Y008536D01*
X024888Y008528D02*
X025073Y008528D01*
X025060Y008519D02*
X024884Y008519D01*
X024880Y008511D02*
X025051Y008511D01*
X025045Y008502D02*
X024877Y008502D01*
X024875Y008494D02*
X025041Y008494D01*
X025038Y008485D02*
X024873Y008485D01*
X024871Y008477D02*
X025034Y008477D01*
X025033Y008468D02*
X024869Y008468D01*
X024869Y008460D02*
X025031Y008460D01*
X025030Y008451D02*
X024869Y008451D01*
X024869Y008443D02*
X025030Y008443D01*
X025030Y008434D02*
X024869Y008434D01*
X024870Y008426D02*
X025031Y008426D01*
X025033Y008417D02*
X024871Y008417D01*
X024873Y008409D02*
X025037Y008409D01*
X025042Y008400D02*
X024874Y008400D01*
X024876Y008392D02*
X025049Y008392D01*
X025059Y008383D02*
X024878Y008383D01*
X024881Y008375D02*
X025075Y008375D01*
X025104Y008261D02*
X025167Y008270D01*
X025208Y008284D01*
X025246Y008305D01*
X025247Y008307D02*
X024924Y008307D01*
X024914Y008315D02*
X025257Y008315D01*
X025267Y008324D02*
X024907Y008324D01*
X024900Y008332D02*
X025277Y008332D01*
X025287Y008332D02*
X025288Y008330D01*
X025297Y008289D01*
X025300Y008278D01*
X025301Y008277D01*
X025303Y008276D01*
X025304Y008276D01*
X025463Y008276D01*
X025461Y008281D02*
X025299Y008281D01*
X025297Y008290D02*
X025459Y008290D01*
X025457Y008298D02*
X025295Y008298D01*
X025293Y008307D02*
X025454Y008307D01*
X025452Y008315D02*
X025292Y008315D01*
X025290Y008324D02*
X025450Y008324D01*
X025218Y008290D02*
X024953Y008290D01*
X024935Y008298D02*
X024985Y008274D01*
X025039Y008262D01*
X025104Y008261D01*
X025128Y008264D02*
X025030Y008264D01*
X024992Y008273D02*
X025175Y008273D01*
X025200Y008281D02*
X024971Y008281D01*
X024768Y008397D02*
X024737Y008350D01*
X024711Y008322D01*
X024681Y008299D01*
X024648Y008282D01*
X024611Y008270D01*
X024564Y008263D01*
X024515Y008262D01*
X024467Y008268D01*
X024434Y008278D01*
X024404Y008296D01*
X024378Y008319D01*
X024357Y008347D01*
X024357Y008464D01*
X024360Y008467D01*
X024360Y008465D01*
X024361Y008461D01*
X024363Y008458D01*
X024365Y008455D01*
X024377Y008432D01*
X024394Y008413D01*
X024415Y008398D01*
X024443Y008386D01*
X024472Y008380D01*
X024509Y008380D01*
X024545Y008387D01*
X024576Y008401D01*
X024601Y008422D01*
X024621Y008449D01*
X024632Y008480D01*
X024644Y008558D01*
X024644Y008636D01*
X024637Y008675D01*
X024620Y008712D01*
X024596Y008743D01*
X024565Y008769D01*
X024545Y008780D01*
X024522Y008786D01*
X024499Y008788D01*
X024456Y008786D01*
X024441Y008783D01*
X024426Y008776D01*
X024397Y008753D01*
X024373Y008726D01*
X024357Y008697D01*
X024346Y008666D01*
X024341Y008633D01*
X024342Y008532D01*
X024347Y008501D01*
X024356Y008474D01*
X024357Y008473D01*
X024356Y008471D01*
X024355Y008470D01*
X024353Y008470D01*
X024348Y008470D01*
X024348Y007907D01*
X024348Y007907D01*
X024185Y008054D01*
X024185Y008864D01*
X024338Y008893D01*
X024337Y008814D01*
X024340Y008811D01*
X024342Y008810D01*
X024351Y008820D01*
X024386Y008858D01*
X024400Y008870D01*
X024415Y008879D01*
X024467Y008900D01*
X024486Y008904D01*
X024564Y008905D01*
X024607Y008898D01*
X024647Y008882D01*
X024683Y008861D01*
X024715Y008835D01*
X024746Y008800D01*
X024769Y008759D01*
X024796Y008676D01*
X024807Y008589D01*
X024802Y008502D01*
X024790Y008448D01*
X024768Y008397D01*
X024769Y008400D02*
X024574Y008400D01*
X024585Y008409D02*
X024773Y008409D01*
X024776Y008417D02*
X024595Y008417D01*
X024604Y008426D02*
X024780Y008426D01*
X024784Y008434D02*
X024610Y008434D01*
X024616Y008443D02*
X024787Y008443D01*
X024790Y008451D02*
X024621Y008451D01*
X024625Y008460D02*
X024792Y008460D01*
X024794Y008468D02*
X024628Y008468D01*
X024631Y008477D02*
X024796Y008477D01*
X024798Y008485D02*
X024633Y008485D01*
X024634Y008494D02*
X024800Y008494D01*
X024802Y008502D02*
X024636Y008502D01*
X024637Y008511D02*
X024803Y008511D01*
X024803Y008519D02*
X024638Y008519D01*
X024640Y008528D02*
X024804Y008528D01*
X024804Y008536D02*
X024641Y008536D01*
X024642Y008545D02*
X024805Y008545D01*
X024805Y008553D02*
X024644Y008553D01*
X024644Y008562D02*
X024806Y008562D01*
X024806Y008570D02*
X024644Y008570D01*
X024644Y008579D02*
X024806Y008579D01*
X024807Y008587D02*
X024644Y008587D01*
X024644Y008596D02*
X024806Y008596D01*
X024805Y008604D02*
X024644Y008604D01*
X024644Y008613D02*
X024804Y008613D01*
X024803Y008621D02*
X024644Y008621D01*
X024644Y008630D02*
X024802Y008630D01*
X024801Y008638D02*
X024644Y008638D01*
X024642Y008647D02*
X024800Y008647D01*
X024799Y008655D02*
X024641Y008655D01*
X024639Y008664D02*
X024797Y008664D01*
X024796Y008672D02*
X024637Y008672D01*
X024634Y008681D02*
X024794Y008681D01*
X024792Y008689D02*
X024630Y008689D01*
X024627Y008698D02*
X024789Y008698D01*
X024786Y008706D02*
X024623Y008706D01*
X024618Y008715D02*
X024783Y008715D01*
X024781Y008723D02*
X024612Y008723D01*
X024605Y008732D02*
X024778Y008732D01*
X024775Y008740D02*
X024599Y008740D01*
X024590Y008749D02*
X024773Y008749D01*
X024770Y008757D02*
X024580Y008757D01*
X024569Y008766D02*
X024766Y008766D01*
X024761Y008774D02*
X024556Y008774D01*
X024535Y008783D02*
X024756Y008783D01*
X024751Y008791D02*
X024185Y008791D01*
X024185Y008783D02*
X024440Y008783D01*
X024424Y008774D02*
X024185Y008774D01*
X024185Y008766D02*
X024413Y008766D01*
X024402Y008757D02*
X024185Y008757D01*
X024185Y008749D02*
X024393Y008749D01*
X024386Y008740D02*
X024185Y008740D01*
X024185Y008732D02*
X024378Y008732D01*
X024372Y008723D02*
X024185Y008723D01*
X024185Y008715D02*
X024367Y008715D01*
X024362Y008706D02*
X024185Y008706D01*
X024185Y008698D02*
X024357Y008698D01*
X024354Y008689D02*
X024185Y008689D01*
X024185Y008681D02*
X024351Y008681D01*
X024348Y008672D02*
X024185Y008672D01*
X024185Y008664D02*
X024345Y008664D01*
X024344Y008655D02*
X024185Y008655D01*
X024185Y008647D02*
X024343Y008647D01*
X024342Y008638D02*
X024185Y008638D01*
X024185Y008630D02*
X024341Y008630D01*
X024341Y008621D02*
X024185Y008621D01*
X024185Y008613D02*
X024342Y008613D01*
X024342Y008604D02*
X024185Y008604D01*
X024185Y008596D02*
X024342Y008596D01*
X024342Y008587D02*
X024185Y008587D01*
X024185Y008579D02*
X024342Y008579D01*
X024342Y008570D02*
X024185Y008570D01*
X024185Y008562D02*
X024342Y008562D01*
X024342Y008553D02*
X024185Y008553D01*
X024185Y008545D02*
X024342Y008545D01*
X024342Y008536D02*
X024185Y008536D01*
X024185Y008528D02*
X024343Y008528D01*
X024344Y008519D02*
X024185Y008519D01*
X024185Y008511D02*
X024346Y008511D01*
X024347Y008502D02*
X024185Y008502D01*
X024185Y008494D02*
X024350Y008494D01*
X024353Y008485D02*
X024185Y008485D01*
X024185Y008477D02*
X024355Y008477D01*
X024348Y008468D02*
X024185Y008468D01*
X024185Y008460D02*
X024348Y008460D01*
X024348Y008451D02*
X024185Y008451D01*
X024185Y008443D02*
X024348Y008443D01*
X024348Y008434D02*
X024185Y008434D01*
X024185Y008426D02*
X024348Y008426D01*
X024348Y008417D02*
X024185Y008417D01*
X024185Y008409D02*
X024348Y008409D01*
X024348Y008400D02*
X024185Y008400D01*
X024185Y008392D02*
X024348Y008392D01*
X024348Y008383D02*
X024185Y008383D01*
X024185Y008375D02*
X024348Y008375D01*
X024348Y008366D02*
X024185Y008366D01*
X024185Y008358D02*
X024348Y008358D01*
X024348Y008349D02*
X024185Y008349D01*
X024185Y008341D02*
X024348Y008341D01*
X024348Y008332D02*
X024185Y008332D01*
X024185Y008324D02*
X024348Y008324D01*
X024348Y008315D02*
X024185Y008315D01*
X024185Y008307D02*
X024348Y008307D01*
X024348Y008298D02*
X024185Y008298D01*
X024185Y008290D02*
X024348Y008290D01*
X024348Y008281D02*
X024185Y008281D01*
X024185Y008273D02*
X024348Y008273D01*
X024348Y008264D02*
X024185Y008264D01*
X024185Y008256D02*
X024348Y008256D01*
X024348Y008247D02*
X024185Y008247D01*
X024185Y008239D02*
X024348Y008239D01*
X024348Y008230D02*
X024185Y008230D01*
X024185Y008222D02*
X024348Y008222D01*
X024348Y008213D02*
X024185Y008213D01*
X024185Y008205D02*
X024348Y008205D01*
X024348Y008196D02*
X024185Y008196D01*
X024185Y008188D02*
X024348Y008188D01*
X024348Y008179D02*
X024185Y008179D01*
X024185Y008171D02*
X024348Y008171D01*
X024348Y008162D02*
X024185Y008162D01*
X024185Y008154D02*
X024348Y008154D01*
X024348Y008145D02*
X024185Y008145D01*
X024185Y008137D02*
X024348Y008137D01*
X024348Y008128D02*
X024185Y008128D01*
X024185Y008120D02*
X024348Y008120D01*
X024348Y008111D02*
X024185Y008111D01*
X024185Y008103D02*
X024348Y008103D01*
X024348Y008094D02*
X024185Y008094D01*
X024185Y008086D02*
X024348Y008086D01*
X024348Y008077D02*
X024185Y008077D01*
X024185Y008069D02*
X024348Y008069D01*
X024348Y008060D02*
X024185Y008060D01*
X024188Y008052D02*
X024348Y008052D01*
X024348Y008043D02*
X024197Y008043D01*
X024207Y008035D02*
X024348Y008035D01*
X024348Y008026D02*
X024216Y008026D01*
X024226Y008018D02*
X024348Y008018D01*
X024348Y008009D02*
X024235Y008009D01*
X024245Y008001D02*
X024348Y008001D01*
X024348Y007992D02*
X024254Y007992D01*
X024263Y007984D02*
X024348Y007984D01*
X024348Y007975D02*
X024273Y007975D01*
X024282Y007967D02*
X024348Y007967D01*
X024348Y007958D02*
X024292Y007958D01*
X024301Y007950D02*
X024348Y007950D01*
X024348Y007941D02*
X024311Y007941D01*
X024320Y007933D02*
X024348Y007933D01*
X024348Y007924D02*
X024329Y007924D01*
X024339Y007916D02*
X024348Y007916D01*
X024453Y008273D02*
X024619Y008273D01*
X024646Y008281D02*
X024429Y008281D01*
X024414Y008290D02*
X024663Y008290D01*
X024679Y008298D02*
X024401Y008298D01*
X024392Y008307D02*
X024691Y008307D01*
X024702Y008315D02*
X024382Y008315D01*
X024374Y008324D02*
X024713Y008324D01*
X024721Y008332D02*
X024368Y008332D01*
X024362Y008341D02*
X024729Y008341D01*
X024737Y008349D02*
X024357Y008349D01*
X024357Y008358D02*
X024742Y008358D01*
X024748Y008366D02*
X024357Y008366D01*
X024357Y008375D02*
X024753Y008375D01*
X024759Y008383D02*
X024526Y008383D01*
X024555Y008392D02*
X024764Y008392D01*
X024573Y008264D02*
X024498Y008264D01*
X024458Y008383D02*
X024357Y008383D01*
X024357Y008392D02*
X024430Y008392D01*
X024412Y008400D02*
X024357Y008400D01*
X024357Y008409D02*
X024400Y008409D01*
X024391Y008417D02*
X024357Y008417D01*
X024357Y008426D02*
X024383Y008426D01*
X024376Y008434D02*
X024357Y008434D01*
X024357Y008443D02*
X024372Y008443D01*
X024367Y008451D02*
X024357Y008451D01*
X024357Y008460D02*
X024362Y008460D01*
X024103Y008466D02*
X024100Y008508D01*
X024086Y008547D01*
X024076Y008563D01*
X024063Y008577D01*
X024036Y008597D01*
X024006Y008613D01*
X023941Y008637D01*
X023873Y008652D01*
X023793Y008668D01*
X023763Y008679D01*
X023735Y008696D01*
X023723Y008709D01*
X023715Y008724D01*
X023713Y008740D01*
X023715Y008756D01*
X023721Y008771D01*
X023731Y008783D01*
X023744Y008791D01*
X023762Y008797D01*
X023780Y008801D01*
X023814Y008803D01*
X023848Y008801D01*
X023869Y008797D01*
X023888Y008789D01*
X023905Y008778D01*
X023917Y008767D01*
X023926Y008754D01*
X023932Y008739D01*
X023935Y008729D01*
X023935Y008718D01*
X024088Y008718D01*
X024085Y008746D01*
X024004Y008797D01*
X023825Y008849D01*
X023660Y008806D01*
X023681Y008686D01*
X023854Y008583D01*
X024021Y008492D01*
X023978Y008364D01*
X023823Y008329D01*
X023538Y008470D01*
X023819Y008322D01*
X023981Y008358D01*
X024025Y008489D01*
X024018Y008503D01*
X023693Y008692D01*
X023674Y008800D01*
X023823Y008845D01*
X023989Y008792D01*
X024066Y008735D01*
X024085Y008749D01*
X024077Y008771D01*
X024063Y008802D01*
X024052Y008819D01*
X024038Y008835D01*
X024001Y008865D01*
X023957Y008886D01*
X023904Y008900D01*
X023849Y008906D01*
X023778Y008906D01*
X023722Y008900D01*
X023668Y008884D01*
X023617Y008858D01*
X023599Y008843D01*
X023583Y008826D01*
X023571Y008805D01*
X023557Y008762D01*
X023552Y008718D01*
X023556Y008673D01*
X023562Y008654D01*
X023572Y008636D01*
X023585Y008621D01*
X023815Y008621D01*
X023805Y008613D02*
X024007Y008613D01*
X024023Y008604D02*
X023819Y008604D01*
X023830Y008613D02*
X023596Y008613D01*
X023585Y008621D02*
X023612Y008600D01*
X023642Y008583D01*
X023673Y008571D01*
X023816Y008537D01*
X023863Y008525D01*
X023907Y008506D01*
X023922Y008496D01*
X023933Y008483D01*
X023940Y008468D01*
X024018Y008468D01*
X024013Y008468D02*
X024103Y008468D01*
X024103Y008466D02*
X024100Y008425D01*
X024095Y008399D01*
X024084Y008374D01*
X024069Y008352D01*
X024041Y008323D01*
X024008Y008299D01*
X023971Y008281D01*
X023931Y008270D01*
X023880Y008263D01*
X023827Y008261D01*
X023726Y008268D01*
X023690Y008276D01*
X023656Y008292D01*
X023609Y008322D01*
X023589Y008339D01*
X023573Y008360D01*
X023560Y008383D01*
X023714Y008383D01*
X023719Y008375D02*
X023760Y008375D01*
X023748Y008379D02*
X023727Y008393D01*
X023708Y008411D01*
X023698Y008428D01*
X023692Y008448D01*
X023690Y008468D01*
X023690Y008470D01*
X023538Y008470D01*
X023539Y008456D01*
X023543Y008433D01*
X023560Y008383D01*
X023557Y008392D02*
X023697Y008392D01*
X023687Y008392D02*
X023728Y008392D01*
X023719Y008400D02*
X023671Y008400D01*
X023680Y008400D02*
X023555Y008400D01*
X023552Y008409D02*
X023662Y008409D01*
X023655Y008409D02*
X023711Y008409D01*
X023705Y008417D02*
X023639Y008417D01*
X023645Y008417D02*
X023549Y008417D01*
X023546Y008426D02*
X023628Y008426D01*
X023623Y008426D02*
X023699Y008426D01*
X023696Y008434D02*
X023606Y008434D01*
X023611Y008434D02*
X023543Y008434D01*
X023542Y008443D02*
X023594Y008443D01*
X023590Y008443D02*
X023693Y008443D01*
X023691Y008451D02*
X023574Y008451D01*
X023577Y008451D02*
X023540Y008451D01*
X023539Y008460D02*
X023559Y008460D01*
X023558Y008460D02*
X023691Y008460D01*
X023690Y008468D02*
X023542Y008468D01*
X023538Y008468D01*
X023565Y008375D02*
X023731Y008375D01*
X023736Y008366D02*
X023984Y008366D01*
X023979Y008366D02*
X024079Y008366D01*
X024084Y008375D02*
X023982Y008375D01*
X023987Y008375D02*
X023886Y008375D01*
X023896Y008378D02*
X023873Y008370D01*
X023848Y008367D01*
X023795Y008367D01*
X023772Y008370D01*
X023748Y008379D01*
X023742Y008383D02*
X023703Y008383D01*
X023748Y008366D02*
X023569Y008366D01*
X023574Y008358D02*
X023766Y008358D01*
X023768Y008349D02*
X023941Y008349D01*
X023950Y008358D02*
X024073Y008358D01*
X024066Y008349D02*
X023912Y008349D01*
X023903Y008341D02*
X023784Y008341D01*
X023783Y008349D02*
X023581Y008349D01*
X023588Y008341D02*
X023800Y008341D01*
X023800Y008332D02*
X023865Y008332D01*
X023875Y008341D02*
X024058Y008341D01*
X024050Y008332D02*
X023837Y008332D01*
X023826Y008324D02*
X023816Y008324D01*
X023817Y008332D02*
X023597Y008332D01*
X023607Y008324D02*
X024042Y008324D01*
X024030Y008315D02*
X023620Y008315D01*
X023633Y008307D02*
X024018Y008307D01*
X024006Y008298D02*
X023647Y008298D01*
X023662Y008290D02*
X023988Y008290D01*
X023971Y008281D02*
X023680Y008281D01*
X023706Y008273D02*
X023941Y008273D01*
X023889Y008264D02*
X023783Y008264D01*
X023752Y008358D02*
X023980Y008358D01*
X023985Y008383D02*
X024088Y008383D01*
X024092Y008392D02*
X023988Y008392D01*
X023993Y008392D02*
X023918Y008392D01*
X023917Y008391D02*
X023896Y008378D01*
X023904Y008383D02*
X023990Y008383D01*
X023990Y008400D02*
X024095Y008400D01*
X024097Y008409D02*
X023993Y008409D01*
X023998Y008409D02*
X023933Y008409D01*
X023930Y008403D02*
X023917Y008391D01*
X023927Y008400D02*
X023995Y008400D01*
X023996Y008417D02*
X024099Y008417D01*
X024100Y008426D02*
X023999Y008426D01*
X024004Y008426D02*
X023941Y008426D01*
X023943Y008434D02*
X023938Y008418D01*
X023930Y008403D01*
X023938Y008417D02*
X024001Y008417D01*
X024002Y008434D02*
X024101Y008434D01*
X024102Y008443D02*
X024005Y008443D01*
X024010Y008443D02*
X023944Y008443D01*
X023944Y008451D02*
X024013Y008451D01*
X024008Y008451D02*
X024102Y008451D01*
X024103Y008460D02*
X024010Y008460D01*
X024015Y008460D02*
X023942Y008460D01*
X023940Y008468D02*
X023944Y008451D01*
X023943Y008434D01*
X024007Y008434D01*
X024016Y008477D02*
X024102Y008477D01*
X024102Y008485D02*
X024019Y008485D01*
X024024Y008485D02*
X023931Y008485D01*
X023936Y008477D02*
X024021Y008477D01*
X024023Y008494D02*
X023924Y008494D01*
X023913Y008502D02*
X024019Y008502D01*
X024018Y008494D02*
X024101Y008494D01*
X024100Y008502D02*
X024003Y008502D01*
X024005Y008511D02*
X023896Y008511D01*
X023876Y008519D02*
X023991Y008519D01*
X023987Y008511D02*
X024099Y008511D01*
X024096Y008519D02*
X023972Y008519D01*
X023976Y008528D02*
X023852Y008528D01*
X023820Y008536D02*
X023961Y008536D01*
X023956Y008528D02*
X024093Y008528D01*
X024090Y008536D02*
X023940Y008536D01*
X023947Y008545D02*
X023784Y008545D01*
X023749Y008553D02*
X023932Y008553D01*
X023925Y008545D02*
X024087Y008545D01*
X024083Y008553D02*
X023909Y008553D01*
X023918Y008562D02*
X023713Y008562D01*
X023677Y008570D02*
X023903Y008570D01*
X023894Y008562D02*
X024077Y008562D01*
X024070Y008570D02*
X023878Y008570D01*
X023888Y008579D02*
X023653Y008579D01*
X023634Y008587D02*
X023874Y008587D01*
X023862Y008579D02*
X024061Y008579D01*
X024050Y008587D02*
X023847Y008587D01*
X023859Y008596D02*
X023619Y008596D01*
X023607Y008604D02*
X023844Y008604D01*
X023833Y008596D02*
X024038Y008596D01*
X023984Y008621D02*
X023790Y008621D01*
X023801Y008630D02*
X023578Y008630D01*
X023571Y008638D02*
X023786Y008638D01*
X023776Y008630D02*
X023961Y008630D01*
X023936Y008638D02*
X023762Y008638D01*
X023771Y008647D02*
X023566Y008647D01*
X023562Y008655D02*
X023757Y008655D01*
X023747Y008647D02*
X023898Y008647D01*
X023858Y008655D02*
X023733Y008655D01*
X023742Y008664D02*
X023559Y008664D01*
X023557Y008672D02*
X023728Y008672D01*
X023719Y008664D02*
X023815Y008664D01*
X023782Y008672D02*
X023705Y008672D01*
X023713Y008681D02*
X023556Y008681D01*
X023555Y008689D02*
X023698Y008689D01*
X023692Y008698D02*
X023554Y008698D01*
X023553Y008706D02*
X023691Y008706D01*
X023689Y008715D02*
X023552Y008715D01*
X023553Y008723D02*
X023688Y008723D01*
X023686Y008732D02*
X023554Y008732D01*
X023555Y008740D02*
X023685Y008740D01*
X023683Y008749D02*
X023556Y008749D01*
X023557Y008757D02*
X023682Y008757D01*
X023680Y008766D02*
X023558Y008766D01*
X023561Y008774D02*
X023679Y008774D01*
X023677Y008783D02*
X023564Y008783D01*
X023567Y008791D02*
X023676Y008791D01*
X023674Y008800D02*
X023570Y008800D01*
X023573Y008808D02*
X023701Y008808D01*
X023701Y008817D02*
X023937Y008817D01*
X023939Y008808D02*
X024059Y008808D01*
X024064Y008800D02*
X023966Y008800D01*
X023966Y008808D02*
X023668Y008808D01*
X023661Y008800D02*
X023773Y008800D01*
X023757Y008825D02*
X023583Y008825D01*
X023578Y008817D02*
X023729Y008817D01*
X023734Y008825D02*
X023908Y008825D01*
X023912Y008817D02*
X024054Y008817D01*
X024047Y008825D02*
X023886Y008825D01*
X023878Y008834D02*
X023766Y008834D01*
X023786Y008834D02*
X023590Y008834D01*
X023597Y008842D02*
X023814Y008842D01*
X023799Y008842D02*
X023849Y008842D01*
X023859Y008834D02*
X024040Y008834D01*
X024029Y008842D02*
X023832Y008842D01*
X023855Y008800D02*
X023995Y008800D01*
X023991Y008791D02*
X024068Y008791D01*
X024072Y008783D02*
X024002Y008783D01*
X024014Y008791D02*
X023883Y008791D01*
X023898Y008783D02*
X024027Y008783D01*
X024013Y008774D02*
X024076Y008774D01*
X024079Y008766D02*
X024025Y008766D01*
X024036Y008757D02*
X024082Y008757D01*
X024081Y008749D02*
X023928Y008749D01*
X023924Y008757D02*
X024068Y008757D01*
X024054Y008766D02*
X023918Y008766D01*
X023909Y008774D02*
X024041Y008774D01*
X024048Y008749D02*
X024085Y008749D01*
X024086Y008740D02*
X023932Y008740D01*
X023934Y008732D02*
X024087Y008732D01*
X024088Y008723D02*
X023935Y008723D01*
X024059Y008740D02*
X024073Y008740D01*
X024019Y008851D02*
X023608Y008851D01*
X023620Y008859D02*
X024008Y008859D01*
X023995Y008868D02*
X023636Y008868D01*
X023653Y008876D02*
X023977Y008876D01*
X023960Y008885D02*
X023671Y008885D01*
X023699Y008893D02*
X023931Y008893D01*
X023893Y008902D02*
X023738Y008902D01*
X023745Y008791D02*
X023663Y008791D01*
X023664Y008783D02*
X023731Y008783D01*
X023724Y008774D02*
X023666Y008774D01*
X023667Y008766D02*
X023719Y008766D01*
X023715Y008757D02*
X023669Y008757D01*
X023670Y008749D02*
X023714Y008749D01*
X023713Y008740D02*
X023672Y008740D01*
X023673Y008732D02*
X023714Y008732D01*
X023716Y008723D02*
X023675Y008723D01*
X023676Y008715D02*
X023720Y008715D01*
X023726Y008706D02*
X023678Y008706D01*
X023679Y008698D02*
X023734Y008698D01*
X023746Y008689D02*
X023681Y008689D01*
X023690Y008681D02*
X023760Y008681D01*
X024185Y008800D02*
X024747Y008800D01*
X024739Y008808D02*
X024185Y008808D01*
X024185Y008817D02*
X024337Y008817D01*
X024337Y008825D02*
X024185Y008825D01*
X024185Y008834D02*
X024338Y008834D01*
X024338Y008842D02*
X024185Y008842D01*
X024185Y008851D02*
X024338Y008851D01*
X024338Y008859D02*
X024185Y008859D01*
X024204Y008868D02*
X024338Y008868D01*
X024338Y008876D02*
X024249Y008876D01*
X024294Y008885D02*
X024338Y008885D01*
X024380Y008851D02*
X024696Y008851D01*
X024706Y008842D02*
X024372Y008842D01*
X024364Y008834D02*
X024717Y008834D01*
X024724Y008825D02*
X024356Y008825D01*
X024348Y008817D02*
X024732Y008817D01*
X024685Y008859D02*
X024388Y008859D01*
X024397Y008868D02*
X024671Y008868D01*
X024657Y008876D02*
X024410Y008876D01*
X024429Y008885D02*
X024641Y008885D01*
X024619Y008893D02*
X024450Y008893D01*
X024475Y008902D02*
X024584Y008902D01*
X024901Y008774D02*
X025081Y008774D01*
X025072Y008766D02*
X024898Y008766D01*
X024895Y008757D02*
X025066Y008757D01*
X025061Y008749D02*
X024892Y008749D01*
X024889Y008740D02*
X025058Y008740D01*
X025054Y008732D02*
X024888Y008732D01*
X024887Y008723D02*
X025052Y008723D01*
X025051Y008715D02*
X024886Y008715D01*
X024885Y008706D02*
X025050Y008706D01*
X025046Y008621D02*
X025442Y008621D01*
X025442Y008613D02*
X025010Y008613D01*
X024984Y008604D02*
X025442Y008604D01*
X025442Y008596D02*
X024961Y008596D01*
X025100Y008630D02*
X025442Y008630D01*
X025442Y008638D02*
X025178Y008638D01*
X025225Y008647D02*
X025442Y008647D01*
X025442Y008655D02*
X025247Y008655D01*
X025261Y008664D02*
X025442Y008664D01*
X025442Y008672D02*
X025270Y008672D01*
X025276Y008681D02*
X025442Y008681D01*
X025442Y008689D02*
X025279Y008689D01*
X025280Y008698D02*
X025442Y008698D01*
X025442Y008706D02*
X025282Y008706D01*
X025282Y008715D02*
X025442Y008715D01*
X025442Y008723D02*
X025282Y008723D01*
X025281Y008732D02*
X025442Y008732D01*
X025442Y008740D02*
X025279Y008740D01*
X025277Y008749D02*
X025442Y008749D01*
X025442Y008757D02*
X025273Y008757D01*
X025268Y008766D02*
X025441Y008766D01*
X025440Y008774D02*
X025262Y008774D01*
X025252Y008783D02*
X025239Y008791D01*
X025193Y008800D02*
X025432Y008800D01*
X025429Y008808D02*
X024920Y008808D01*
X024915Y008800D02*
X025140Y008800D01*
X025107Y008791D02*
X024910Y008791D01*
X024905Y008783D02*
X025091Y008783D01*
X025058Y008893D02*
X025295Y008893D01*
X025324Y008885D02*
X025027Y008885D01*
X025009Y008876D02*
X025346Y008876D01*
X025362Y008868D02*
X024990Y008868D01*
X024975Y008859D02*
X025378Y008859D01*
X025392Y008851D02*
X024963Y008851D01*
X024951Y008842D02*
X025402Y008842D01*
X025412Y008834D02*
X024943Y008834D01*
X024935Y008825D02*
X025418Y008825D01*
X025424Y008817D02*
X024927Y008817D01*
X025106Y008902D02*
X025248Y008902D01*
X028666Y008646D02*
X028678Y008705D01*
X028701Y008760D01*
X028734Y008810D01*
X028775Y008853D01*
X028825Y008887D01*
X028879Y008911D01*
X028939Y008924D01*
X028999Y008925D01*
X029056Y008918D01*
X029111Y008905D01*
X029157Y008887D01*
X029197Y008860D01*
X029231Y008824D01*
X029256Y008782D01*
X029273Y008737D01*
X029282Y008689D01*
X029117Y008689D01*
X029117Y008690D01*
X029115Y008714D01*
X029107Y008736D01*
X029094Y008756D01*
X029077Y008773D01*
X029056Y008785D01*
X029024Y008796D01*
X028990Y008799D01*
X028956Y008796D01*
X028923Y008789D01*
X028906Y008781D01*
X028891Y008769D01*
X028864Y008732D01*
X028843Y008691D01*
X028831Y008647D01*
X028827Y008601D01*
X028833Y008539D01*
X028846Y008478D01*
X028859Y008449D01*
X028879Y008423D01*
X028903Y008403D01*
X028932Y008390D01*
X028964Y008383D01*
X028996Y008381D01*
X029020Y008384D01*
X029044Y008391D01*
X029065Y008402D01*
X029084Y008416D01*
X029098Y008434D01*
X029111Y008458D01*
X029120Y008484D01*
X029124Y008511D01*
X029284Y008511D01*
X029284Y008509D01*
X029283Y008490D01*
X029279Y008472D01*
X029258Y008417D01*
X029084Y008417D01*
X029091Y008426D02*
X029261Y008426D01*
X029265Y008434D02*
X029098Y008434D01*
X029103Y008443D02*
X029268Y008443D01*
X029271Y008451D02*
X029108Y008451D01*
X029112Y008460D02*
X029274Y008460D01*
X029278Y008468D02*
X029115Y008468D01*
X029118Y008477D02*
X029280Y008477D01*
X029282Y008485D02*
X029120Y008485D01*
X029122Y008494D02*
X029283Y008494D01*
X029284Y008502D02*
X029123Y008502D01*
X029124Y008511D02*
X029284Y008511D01*
X029350Y008519D02*
X029505Y008519D01*
X029505Y008514D02*
X029520Y008468D01*
X029358Y008468D01*
X029359Y008460D02*
X029525Y008460D01*
X029520Y008468D02*
X029542Y008426D01*
X029609Y008385D01*
X029680Y008376D01*
X029751Y008400D01*
X029795Y008440D01*
X029817Y008489D01*
X029832Y008551D01*
X029832Y008608D01*
X029822Y008685D01*
X029792Y008750D01*
X029758Y008783D01*
X029719Y008804D01*
X029671Y008808D01*
X029667Y008808D01*
X029669Y008925D01*
X029748Y008915D01*
X029812Y008893D01*
X029669Y008893D01*
X029669Y008885D02*
X029824Y008885D01*
X029812Y008893D02*
X029890Y008839D01*
X029933Y008789D01*
X029974Y008697D01*
X029985Y008611D01*
X029975Y008528D01*
X029948Y008431D01*
X029916Y008380D01*
X029869Y008335D01*
X029825Y008304D01*
X029752Y008279D01*
X029653Y008269D01*
X029535Y008285D01*
X029423Y008355D01*
X029360Y008453D01*
X029336Y008606D01*
X029368Y008746D01*
X029452Y008853D01*
X029585Y008919D01*
X029643Y008926D01*
X029645Y008926D01*
X029650Y008924D01*
X029650Y008809D01*
X029606Y008803D01*
X029559Y008777D01*
X029527Y008733D01*
X029511Y008697D01*
X029500Y008638D01*
X029498Y008564D01*
X029505Y008514D01*
X029506Y008511D02*
X029351Y008511D01*
X029353Y008502D02*
X029509Y008502D01*
X029512Y008494D02*
X029354Y008494D01*
X029355Y008485D02*
X029515Y008485D01*
X029518Y008477D02*
X029357Y008477D01*
X029362Y008451D02*
X029529Y008451D01*
X029534Y008443D02*
X029367Y008443D01*
X029372Y008434D02*
X029538Y008434D01*
X029543Y008426D02*
X029378Y008426D01*
X029383Y008417D02*
X029557Y008417D01*
X029571Y008409D02*
X029389Y008409D01*
X029394Y008400D02*
X029585Y008400D01*
X029599Y008392D02*
X029400Y008392D01*
X029405Y008383D02*
X029624Y008383D01*
X029701Y008383D02*
X029918Y008383D01*
X029924Y008392D02*
X029726Y008392D01*
X029751Y008400D02*
X029929Y008400D01*
X029934Y008409D02*
X029761Y008409D01*
X029770Y008417D02*
X029940Y008417D01*
X029945Y008426D02*
X029779Y008426D01*
X029789Y008434D02*
X029949Y008434D01*
X029952Y008443D02*
X029797Y008443D01*
X029800Y008451D02*
X029954Y008451D01*
X029956Y008460D02*
X029804Y008460D01*
X029808Y008468D02*
X029959Y008468D01*
X029961Y008477D02*
X029812Y008477D01*
X029816Y008485D02*
X029963Y008485D01*
X029966Y008494D02*
X029818Y008494D01*
X029821Y008502D02*
X029968Y008502D01*
X029970Y008511D02*
X029823Y008511D01*
X029825Y008519D02*
X029973Y008519D01*
X029975Y008528D02*
X029827Y008528D01*
X029829Y008536D02*
X029976Y008536D01*
X029977Y008545D02*
X029831Y008545D01*
X029832Y008553D02*
X029978Y008553D01*
X029979Y008562D02*
X029832Y008562D01*
X029832Y008570D02*
X029980Y008570D01*
X029981Y008579D02*
X029832Y008579D01*
X029832Y008587D02*
X029982Y008587D01*
X029983Y008596D02*
X029832Y008596D01*
X029832Y008604D02*
X029985Y008604D01*
X029985Y008613D02*
X029832Y008613D01*
X029831Y008621D02*
X029984Y008621D01*
X029983Y008630D02*
X029830Y008630D01*
X029828Y008638D02*
X029982Y008638D01*
X029981Y008647D02*
X029827Y008647D01*
X029826Y008655D02*
X029980Y008655D01*
X029979Y008664D02*
X029825Y008664D01*
X029824Y008672D02*
X029978Y008672D01*
X029976Y008681D02*
X029823Y008681D01*
X029820Y008689D02*
X029975Y008689D01*
X029974Y008698D02*
X029817Y008698D01*
X029813Y008706D02*
X029970Y008706D01*
X029966Y008715D02*
X029809Y008715D01*
X029805Y008723D02*
X029963Y008723D01*
X029959Y008732D02*
X029801Y008732D01*
X029797Y008740D02*
X029955Y008740D01*
X029951Y008749D02*
X029793Y008749D01*
X029785Y008757D02*
X029948Y008757D01*
X029944Y008766D02*
X029776Y008766D01*
X029767Y008774D02*
X029940Y008774D01*
X029936Y008783D02*
X029759Y008783D01*
X029743Y008791D02*
X029932Y008791D01*
X029924Y008800D02*
X029727Y008800D01*
X029667Y008808D02*
X029917Y008808D01*
X029910Y008817D02*
X029667Y008817D01*
X029668Y008825D02*
X029902Y008825D01*
X029895Y008834D02*
X029668Y008834D01*
X029668Y008842D02*
X029886Y008842D01*
X029874Y008851D02*
X029668Y008851D01*
X029668Y008859D02*
X029861Y008859D01*
X029849Y008868D02*
X029668Y008868D01*
X029668Y008876D02*
X029837Y008876D01*
X029787Y008902D02*
X029669Y008902D01*
X029669Y008910D02*
X029763Y008910D01*
X029720Y008919D02*
X029669Y008919D01*
X029669Y008929D02*
X029663Y008929D01*
X029663Y008804D01*
X029655Y008802D02*
X029646Y008802D01*
X029644Y008808D02*
X029417Y008808D01*
X029410Y008800D02*
X029600Y008800D01*
X029585Y008791D02*
X029404Y008791D01*
X029397Y008783D02*
X029569Y008783D01*
X029557Y008774D02*
X029390Y008774D01*
X029384Y008766D02*
X029551Y008766D01*
X029545Y008757D02*
X029377Y008757D01*
X029370Y008749D02*
X029539Y008749D01*
X029533Y008740D02*
X029367Y008740D01*
X029365Y008732D02*
X029527Y008732D01*
X029523Y008723D02*
X029363Y008723D01*
X029361Y008715D02*
X029519Y008715D01*
X029515Y008706D02*
X029359Y008706D01*
X029357Y008698D02*
X029512Y008698D01*
X029510Y008689D02*
X029355Y008689D01*
X029353Y008681D02*
X029508Y008681D01*
X029507Y008672D02*
X029351Y008672D01*
X029349Y008664D02*
X029505Y008664D01*
X029504Y008655D02*
X029348Y008655D01*
X029346Y008647D02*
X029502Y008647D01*
X029500Y008638D02*
X029344Y008638D01*
X029342Y008630D02*
X029500Y008630D01*
X029500Y008621D02*
X029340Y008621D01*
X029338Y008613D02*
X029500Y008613D01*
X029958Y008438D02*
X029970Y008472D01*
X029979Y008506D01*
X029986Y008541D01*
X029990Y008577D01*
X029992Y008612D01*
X030057Y008613D02*
X030227Y008613D01*
X030227Y008621D02*
X030057Y008621D01*
X030057Y008630D02*
X030227Y008630D01*
X030227Y008638D02*
X030057Y008638D01*
X030057Y008647D02*
X030227Y008647D01*
X030227Y008655D02*
X030057Y008655D01*
X030057Y008664D02*
X030227Y008664D01*
X030227Y008662D02*
X030227Y008276D01*
X030057Y008276D01*
X030057Y008908D01*
X030214Y008908D01*
X030214Y008821D01*
X030223Y008823D01*
X030236Y008840D01*
X030266Y008871D01*
X030296Y008895D01*
X030331Y008911D01*
X030374Y008921D01*
X030428Y008926D01*
X030466Y008923D01*
X030502Y008913D01*
X030533Y008897D01*
X030561Y008876D01*
X030584Y008849D01*
X030601Y008819D01*
X030603Y008819D01*
X030605Y008820D01*
X030608Y008824D01*
X030626Y008843D01*
X030657Y008873D01*
X030692Y008898D01*
X030724Y008913D01*
X030758Y008923D01*
X030793Y008925D01*
X030844Y008921D01*
X030893Y008911D01*
X030927Y008898D01*
X030958Y008878D01*
X030983Y008852D01*
X031006Y008815D01*
X031022Y008774D01*
X030823Y008774D01*
X030819Y008778D02*
X030802Y008788D01*
X030783Y008793D01*
X030747Y008796D01*
X030710Y008792D01*
X030693Y008787D01*
X030678Y008778D01*
X030664Y008766D01*
X030649Y008744D01*
X030637Y008720D01*
X030631Y008694D01*
X030628Y008650D01*
X030628Y008275D01*
X030458Y008275D01*
X030458Y008691D01*
X030455Y008718D01*
X030446Y008743D01*
X030430Y008766D01*
X030416Y008779D01*
X030399Y008789D01*
X030380Y008795D01*
X030360Y008796D01*
X030326Y008794D01*
X030308Y008791D01*
X030291Y008783D01*
X030276Y008772D01*
X030243Y008734D01*
X030232Y008712D01*
X030226Y008687D01*
X030227Y008662D01*
X030227Y008672D02*
X030057Y008672D01*
X030057Y008681D02*
X030226Y008681D01*
X030227Y008689D02*
X030057Y008689D01*
X030057Y008698D02*
X030228Y008698D01*
X030230Y008706D02*
X030057Y008706D01*
X030057Y008715D02*
X030233Y008715D01*
X030238Y008723D02*
X030057Y008723D01*
X030057Y008732D02*
X030242Y008732D01*
X030249Y008740D02*
X030057Y008740D01*
X030057Y008749D02*
X030256Y008749D01*
X030263Y008757D02*
X030057Y008757D01*
X030057Y008766D02*
X030271Y008766D01*
X030279Y008774D02*
X030057Y008774D01*
X030057Y008783D02*
X030290Y008783D01*
X030311Y008791D02*
X030057Y008791D01*
X030057Y008800D02*
X031012Y008800D01*
X031009Y008808D02*
X030057Y008808D01*
X030057Y008817D02*
X031005Y008817D01*
X031000Y008825D02*
X030609Y008825D01*
X030598Y008825D02*
X030225Y008825D01*
X030214Y008825D02*
X030057Y008825D01*
X030057Y008834D02*
X030214Y008834D01*
X030214Y008842D02*
X030057Y008842D01*
X030057Y008851D02*
X030214Y008851D01*
X030214Y008859D02*
X030057Y008859D01*
X030057Y008868D02*
X030214Y008868D01*
X030214Y008876D02*
X030057Y008876D01*
X030057Y008885D02*
X030214Y008885D01*
X030214Y008893D02*
X030057Y008893D01*
X030057Y008902D02*
X030214Y008902D01*
X030255Y008859D02*
X030575Y008859D01*
X030568Y008868D02*
X030263Y008868D01*
X030273Y008876D02*
X030560Y008876D01*
X030549Y008885D02*
X030283Y008885D01*
X030294Y008893D02*
X030539Y008893D01*
X030525Y008902D02*
X030311Y008902D01*
X030329Y008910D02*
X030508Y008910D01*
X030482Y008919D02*
X030364Y008919D01*
X030392Y008791D02*
X030707Y008791D01*
X030686Y008783D02*
X030410Y008783D01*
X030422Y008774D02*
X030673Y008774D01*
X030664Y008766D02*
X030431Y008766D01*
X030436Y008757D02*
X030658Y008757D01*
X030652Y008749D02*
X030442Y008749D01*
X030447Y008740D02*
X030647Y008740D01*
X030643Y008732D02*
X030450Y008732D01*
X030453Y008723D02*
X030639Y008723D01*
X030636Y008715D02*
X030456Y008715D01*
X030457Y008706D02*
X030634Y008706D01*
X030632Y008698D02*
X030458Y008698D01*
X030458Y008689D02*
X030631Y008689D01*
X030630Y008681D02*
X030458Y008681D01*
X030458Y008672D02*
X030630Y008672D01*
X030629Y008664D02*
X030458Y008664D01*
X030458Y008655D02*
X030629Y008655D01*
X030628Y008647D02*
X030458Y008647D01*
X030458Y008638D02*
X030628Y008638D01*
X030628Y008630D02*
X030458Y008630D01*
X030458Y008621D02*
X030628Y008621D01*
X030628Y008613D02*
X030458Y008613D01*
X030458Y008604D02*
X030628Y008604D01*
X030628Y008596D02*
X030458Y008596D01*
X030458Y008587D02*
X030628Y008587D01*
X030628Y008579D02*
X030458Y008579D01*
X030458Y008570D02*
X030628Y008570D01*
X030628Y008562D02*
X030458Y008562D01*
X030458Y008553D02*
X030628Y008553D01*
X030628Y008545D02*
X030458Y008545D01*
X030458Y008536D02*
X030628Y008536D01*
X030628Y008528D02*
X030458Y008528D01*
X030458Y008519D02*
X030628Y008519D01*
X030628Y008511D02*
X030458Y008511D01*
X030458Y008502D02*
X030628Y008502D01*
X030628Y008494D02*
X030458Y008494D01*
X030458Y008485D02*
X030628Y008485D01*
X030628Y008477D02*
X030458Y008477D01*
X030458Y008468D02*
X030628Y008468D01*
X030628Y008460D02*
X030458Y008460D01*
X030458Y008451D02*
X030628Y008451D01*
X030628Y008443D02*
X030458Y008443D01*
X030458Y008434D02*
X030628Y008434D01*
X030628Y008426D02*
X030458Y008426D01*
X030458Y008417D02*
X030628Y008417D01*
X030628Y008409D02*
X030458Y008409D01*
X030458Y008400D02*
X030628Y008400D01*
X030628Y008392D02*
X030458Y008392D01*
X030458Y008383D02*
X030628Y008383D01*
X030628Y008375D02*
X030458Y008375D01*
X030458Y008366D02*
X030628Y008366D01*
X030628Y008358D02*
X030458Y008358D01*
X030458Y008349D02*
X030628Y008349D01*
X030628Y008341D02*
X030458Y008341D01*
X030458Y008332D02*
X030628Y008332D01*
X030628Y008324D02*
X030458Y008324D01*
X030458Y008315D02*
X030628Y008315D01*
X030628Y008307D02*
X030458Y008307D01*
X030458Y008298D02*
X030628Y008298D01*
X030628Y008290D02*
X030458Y008290D01*
X030458Y008281D02*
X030628Y008281D01*
X030861Y008281D02*
X031028Y008281D01*
X031028Y008275D02*
X030861Y008275D01*
X030861Y008680D01*
X030857Y008716D01*
X030844Y008749D01*
X030833Y008765D01*
X030819Y008778D01*
X030811Y008783D02*
X031019Y008783D01*
X031015Y008791D02*
X030790Y008791D01*
X030833Y008766D02*
X031023Y008766D01*
X031022Y008774D02*
X031028Y008731D01*
X031028Y008275D01*
X031028Y008290D02*
X030861Y008290D01*
X030861Y008298D02*
X031028Y008298D01*
X031028Y008307D02*
X030861Y008307D01*
X030861Y008315D02*
X031028Y008315D01*
X031028Y008324D02*
X030861Y008324D01*
X030861Y008332D02*
X031028Y008332D01*
X031028Y008341D02*
X030861Y008341D01*
X030861Y008349D02*
X031028Y008349D01*
X031028Y008358D02*
X030861Y008358D01*
X030861Y008366D02*
X031028Y008366D01*
X031028Y008375D02*
X030861Y008375D01*
X030861Y008383D02*
X031028Y008383D01*
X031028Y008392D02*
X030861Y008392D01*
X030861Y008400D02*
X031028Y008400D01*
X031028Y008409D02*
X030861Y008409D01*
X030861Y008417D02*
X031028Y008417D01*
X031028Y008426D02*
X030861Y008426D01*
X030861Y008434D02*
X031028Y008434D01*
X031028Y008443D02*
X030861Y008443D01*
X030861Y008451D02*
X031028Y008451D01*
X031028Y008460D02*
X030861Y008460D01*
X030861Y008468D02*
X031028Y008468D01*
X031028Y008477D02*
X030861Y008477D01*
X030861Y008485D02*
X031028Y008485D01*
X031028Y008494D02*
X030861Y008494D01*
X030861Y008502D02*
X031028Y008502D01*
X031028Y008511D02*
X030861Y008511D01*
X030861Y008519D02*
X031028Y008519D01*
X031028Y008528D02*
X030861Y008528D01*
X030861Y008536D02*
X031028Y008536D01*
X031028Y008545D02*
X030861Y008545D01*
X030861Y008553D02*
X031028Y008553D01*
X031028Y008562D02*
X030861Y008562D01*
X030861Y008570D02*
X031028Y008570D01*
X031028Y008579D02*
X030861Y008579D01*
X030861Y008587D02*
X031028Y008587D01*
X031028Y008596D02*
X030861Y008596D01*
X030861Y008604D02*
X031028Y008604D01*
X031028Y008613D02*
X030861Y008613D01*
X030861Y008621D02*
X031028Y008621D01*
X031028Y008630D02*
X030861Y008630D01*
X030861Y008638D02*
X031028Y008638D01*
X031028Y008647D02*
X030861Y008647D01*
X030861Y008655D02*
X031028Y008655D01*
X031028Y008664D02*
X030861Y008664D01*
X030861Y008672D02*
X031028Y008672D01*
X031028Y008681D02*
X030861Y008681D01*
X030860Y008689D02*
X031028Y008689D01*
X031028Y008698D02*
X030859Y008698D01*
X030858Y008706D02*
X031028Y008706D01*
X031028Y008715D02*
X030857Y008715D01*
X030854Y008723D02*
X031028Y008723D01*
X031028Y008732D02*
X030851Y008732D01*
X030848Y008740D02*
X031027Y008740D01*
X031026Y008749D02*
X030844Y008749D01*
X030839Y008757D02*
X031024Y008757D01*
X030995Y008834D02*
X030617Y008834D01*
X030625Y008842D02*
X030990Y008842D01*
X030984Y008851D02*
X030634Y008851D01*
X030643Y008859D02*
X030976Y008859D01*
X030968Y008868D02*
X030652Y008868D01*
X030662Y008876D02*
X030960Y008876D01*
X030948Y008885D02*
X030674Y008885D01*
X030686Y008893D02*
X030935Y008893D01*
X030918Y008902D02*
X030700Y008902D01*
X030717Y008910D02*
X030896Y008910D01*
X030855Y008919D02*
X030743Y008919D01*
X030593Y008834D02*
X030231Y008834D01*
X030238Y008842D02*
X030588Y008842D01*
X030583Y008851D02*
X030247Y008851D01*
X030227Y008604D02*
X030057Y008604D01*
X030057Y008596D02*
X030227Y008596D01*
X030227Y008587D02*
X030057Y008587D01*
X030057Y008579D02*
X030227Y008579D01*
X030227Y008570D02*
X030057Y008570D01*
X030057Y008562D02*
X030227Y008562D01*
X030227Y008553D02*
X030057Y008553D01*
X030057Y008545D02*
X030227Y008545D01*
X030227Y008536D02*
X030057Y008536D01*
X030057Y008528D02*
X030227Y008528D01*
X030227Y008519D02*
X030057Y008519D01*
X030057Y008511D02*
X030227Y008511D01*
X030227Y008502D02*
X030057Y008502D01*
X030057Y008494D02*
X030227Y008494D01*
X030227Y008485D02*
X030057Y008485D01*
X030057Y008477D02*
X030227Y008477D01*
X030227Y008468D02*
X030057Y008468D01*
X030057Y008460D02*
X030227Y008460D01*
X030227Y008451D02*
X030057Y008451D01*
X030057Y008443D02*
X030227Y008443D01*
X030227Y008434D02*
X030057Y008434D01*
X030057Y008426D02*
X030227Y008426D01*
X030227Y008417D02*
X030057Y008417D01*
X030057Y008409D02*
X030227Y008409D01*
X030227Y008400D02*
X030057Y008400D01*
X030057Y008392D02*
X030227Y008392D01*
X030227Y008383D02*
X030057Y008383D01*
X030057Y008375D02*
X030227Y008375D01*
X030227Y008366D02*
X030057Y008366D01*
X030057Y008358D02*
X030227Y008358D01*
X030227Y008349D02*
X030057Y008349D01*
X030057Y008341D02*
X030227Y008341D01*
X030227Y008332D02*
X030057Y008332D01*
X030057Y008324D02*
X030227Y008324D01*
X030227Y008315D02*
X030057Y008315D01*
X030057Y008307D02*
X030227Y008307D01*
X030227Y008298D02*
X030057Y008298D01*
X030057Y008290D02*
X030227Y008290D01*
X030227Y008281D02*
X030057Y008281D01*
X029911Y008375D02*
X029411Y008375D01*
X029416Y008366D02*
X029902Y008366D01*
X029893Y008358D02*
X029422Y008358D01*
X029433Y008349D02*
X029884Y008349D01*
X029875Y008341D02*
X029446Y008341D01*
X029460Y008332D02*
X029865Y008332D01*
X029853Y008324D02*
X029474Y008324D01*
X029487Y008315D02*
X029841Y008315D01*
X029829Y008307D02*
X029501Y008307D01*
X029514Y008298D02*
X029808Y008298D01*
X029783Y008290D02*
X029528Y008290D01*
X029564Y008281D02*
X029758Y008281D01*
X029689Y008273D02*
X029627Y008273D01*
X029607Y008393D02*
X029589Y008401D01*
X029572Y008411D01*
X029557Y008424D01*
X029544Y008439D01*
X029533Y008455D01*
X029503Y008528D02*
X029349Y008528D01*
X029347Y008536D02*
X029502Y008536D01*
X029501Y008545D02*
X029346Y008545D01*
X029345Y008553D02*
X029500Y008553D01*
X029499Y008562D02*
X029343Y008562D01*
X029342Y008570D02*
X029498Y008570D01*
X029499Y008579D02*
X029341Y008579D01*
X029339Y008587D02*
X029499Y008587D01*
X029499Y008596D02*
X029338Y008596D01*
X029337Y008604D02*
X029499Y008604D01*
X029827Y008577D02*
X029825Y008545D01*
X029819Y008514D01*
X029809Y008483D01*
X029796Y008455D01*
X029957Y008438D02*
X029945Y008411D01*
X029930Y008386D01*
X029913Y008363D01*
X029893Y008342D01*
X029871Y008324D01*
X029847Y008307D01*
X029821Y008294D01*
X029794Y008283D01*
X029739Y008401D02*
X029756Y008411D01*
X029772Y008424D01*
X029785Y008439D01*
X029796Y008455D01*
X029533Y008455D02*
X029523Y008476D01*
X029515Y008498D01*
X029509Y008521D01*
X029506Y008545D01*
X029384Y008400D02*
X029398Y008378D01*
X029416Y008359D01*
X029435Y008341D01*
X029258Y008417D02*
X029226Y008368D01*
X029184Y008326D01*
X029135Y008294D01*
X029092Y008276D01*
X029047Y008265D01*
X029000Y008261D01*
X028938Y008265D01*
X028876Y008276D01*
X028834Y008290D01*
X028795Y008311D01*
X028760Y008338D01*
X028729Y008370D01*
X028702Y008410D01*
X028682Y008454D01*
X028669Y008500D01*
X028663Y008548D01*
X028666Y008646D01*
X028666Y008647D02*
X028831Y008647D01*
X028833Y008655D02*
X028668Y008655D01*
X028670Y008664D02*
X028836Y008664D01*
X028838Y008672D02*
X028672Y008672D01*
X028673Y008681D02*
X028840Y008681D01*
X028843Y008689D02*
X028675Y008689D01*
X028677Y008698D02*
X028847Y008698D01*
X028851Y008706D02*
X028679Y008706D01*
X028682Y008715D02*
X028855Y008715D01*
X028859Y008723D02*
X028686Y008723D01*
X028689Y008732D02*
X028863Y008732D01*
X028870Y008740D02*
X028693Y008740D01*
X028696Y008749D02*
X028876Y008749D01*
X028882Y008757D02*
X028700Y008757D01*
X028704Y008766D02*
X028889Y008766D01*
X028897Y008774D02*
X028710Y008774D01*
X028716Y008783D02*
X028909Y008783D01*
X028933Y008791D02*
X028721Y008791D01*
X028727Y008800D02*
X029246Y008800D01*
X029241Y008808D02*
X028732Y008808D01*
X028740Y008817D02*
X029236Y008817D01*
X029230Y008825D02*
X028748Y008825D01*
X028757Y008834D02*
X029222Y008834D01*
X029214Y008842D02*
X028765Y008842D01*
X028773Y008851D02*
X029206Y008851D01*
X029198Y008859D02*
X028784Y008859D01*
X028797Y008868D02*
X029186Y008868D01*
X029173Y008876D02*
X028809Y008876D01*
X028821Y008885D02*
X029160Y008885D01*
X029141Y008893D02*
X028839Y008893D01*
X028858Y008902D02*
X029120Y008902D01*
X029089Y008910D02*
X028877Y008910D01*
X028914Y008919D02*
X029048Y008919D01*
X029038Y008791D02*
X029251Y008791D01*
X029256Y008783D02*
X029060Y008783D01*
X029074Y008774D02*
X029259Y008774D01*
X029262Y008766D02*
X029084Y008766D01*
X029093Y008757D02*
X029265Y008757D01*
X029269Y008749D02*
X029099Y008749D01*
X029104Y008740D02*
X029272Y008740D01*
X029274Y008732D02*
X029108Y008732D01*
X029111Y008723D02*
X029276Y008723D01*
X029277Y008715D02*
X029114Y008715D01*
X029116Y008706D02*
X029279Y008706D01*
X029281Y008698D02*
X029116Y008698D01*
X029117Y008689D02*
X029282Y008689D01*
X029816Y008676D02*
X029822Y008643D01*
X029826Y008610D01*
X029827Y008577D01*
X029341Y008517D02*
X029336Y008555D01*
X029335Y008593D01*
X029337Y008631D01*
X029342Y008668D01*
X029424Y008817D02*
X029650Y008817D01*
X029650Y008825D02*
X029430Y008825D01*
X029437Y008834D02*
X029650Y008834D01*
X029650Y008842D02*
X029444Y008842D01*
X029450Y008851D02*
X029650Y008851D01*
X029650Y008859D02*
X029465Y008859D01*
X029482Y008868D02*
X029650Y008868D01*
X029650Y008876D02*
X029499Y008876D01*
X029516Y008885D02*
X029650Y008885D01*
X029650Y008893D02*
X029533Y008893D01*
X029550Y008902D02*
X029650Y008902D01*
X029650Y008910D02*
X029567Y008910D01*
X029585Y008919D02*
X029650Y008919D01*
X029655Y008929D02*
X029655Y008802D01*
X029794Y008284D02*
X029759Y008274D01*
X029724Y008267D01*
X029688Y008263D01*
X029652Y008262D01*
X029607Y008393D02*
X029629Y008387D01*
X029651Y008384D01*
X029674Y008384D01*
X029696Y008387D01*
X029718Y008393D01*
X029739Y008401D01*
X029384Y008400D02*
X029369Y008428D01*
X029357Y008457D01*
X029348Y008487D01*
X029341Y008517D01*
X029252Y008409D02*
X029074Y008409D01*
X029062Y008400D02*
X029247Y008400D01*
X029241Y008392D02*
X029045Y008392D01*
X029013Y008383D02*
X029236Y008383D01*
X029230Y008375D02*
X028726Y008375D01*
X028721Y008383D02*
X028962Y008383D01*
X028929Y008392D02*
X028715Y008392D01*
X028709Y008400D02*
X028911Y008400D01*
X028897Y008409D02*
X028703Y008409D01*
X028699Y008417D02*
X028886Y008417D01*
X028877Y008426D02*
X028695Y008426D01*
X028691Y008434D02*
X028870Y008434D01*
X028864Y008443D02*
X028687Y008443D01*
X028683Y008451D02*
X028858Y008451D01*
X028854Y008460D02*
X028681Y008460D01*
X028678Y008468D02*
X028851Y008468D01*
X028847Y008477D02*
X028676Y008477D01*
X028673Y008485D02*
X028845Y008485D01*
X028843Y008494D02*
X028671Y008494D01*
X028669Y008502D02*
X028841Y008502D01*
X028839Y008511D02*
X028668Y008511D01*
X028667Y008519D02*
X028837Y008519D01*
X028835Y008528D02*
X028666Y008528D01*
X028665Y008536D02*
X028833Y008536D01*
X028832Y008545D02*
X028664Y008545D01*
X028663Y008553D02*
X028831Y008553D01*
X028831Y008562D02*
X028664Y008562D01*
X028664Y008570D02*
X028830Y008570D01*
X028829Y008579D02*
X028664Y008579D01*
X028665Y008587D02*
X028829Y008587D01*
X028828Y008596D02*
X028665Y008596D01*
X028665Y008604D02*
X028828Y008604D01*
X028828Y008613D02*
X028665Y008613D01*
X028666Y008621D02*
X028829Y008621D01*
X028830Y008630D02*
X028666Y008630D01*
X028666Y008638D02*
X028830Y008638D01*
X027918Y008641D02*
X027918Y008615D01*
X028733Y008366D02*
X029224Y008366D01*
X029216Y008358D02*
X028741Y008358D01*
X028749Y008349D02*
X029207Y008349D01*
X029199Y008341D02*
X028757Y008341D01*
X028767Y008332D02*
X029190Y008332D01*
X029180Y008324D02*
X028778Y008324D01*
X028789Y008315D02*
X029167Y008315D01*
X029154Y008307D02*
X028803Y008307D01*
X028819Y008298D02*
X029142Y008298D01*
X029125Y008290D02*
X028835Y008290D01*
X028861Y008281D02*
X029105Y008281D01*
X029079Y008273D02*
X028895Y008273D01*
X028950Y008264D02*
X029039Y008264D01*
X029817Y008677D02*
X029809Y008702D01*
X029798Y008726D01*
X029784Y008748D01*
X029767Y008769D01*
X029767Y008768D02*
X029754Y008778D01*
X029741Y008787D01*
X029726Y008794D01*
X029646Y008802D02*
X029627Y008801D01*
X029609Y008796D01*
X029591Y008789D01*
X029575Y008780D01*
X029561Y008768D01*
X029548Y008754D01*
X029489Y008881D02*
X029461Y008862D01*
X029436Y008841D01*
X029413Y008817D01*
X029392Y008791D01*
X029375Y008762D01*
X029360Y008732D01*
X029349Y008701D01*
X029342Y008668D01*
X029435Y008341D02*
X029462Y008321D01*
X029491Y008304D01*
X029521Y008289D01*
X029553Y008278D01*
X029585Y008269D01*
X029618Y008264D01*
X029652Y008262D01*
X029757Y008918D02*
X029728Y008924D01*
X029699Y008928D01*
X029669Y008929D01*
X029548Y008754D02*
X029535Y008734D01*
X029523Y008712D01*
X029515Y008690D01*
X029509Y008666D01*
X029506Y008642D01*
X029663Y008804D02*
X029684Y008803D01*
X029705Y008800D01*
X029725Y008794D01*
X029758Y008918D02*
X029785Y008910D01*
X029812Y008899D01*
X029837Y008886D01*
X029862Y008870D01*
X029884Y008852D01*
X029883Y008852D02*
X029907Y008828D01*
X029929Y008802D01*
X029948Y008774D01*
X029963Y008744D01*
X029976Y008712D01*
X029984Y008679D01*
X029989Y008646D01*
X029991Y008612D01*
X029506Y008642D02*
X029504Y008609D01*
X029504Y008577D01*
X029507Y008545D01*
X029489Y008880D02*
X029520Y008896D01*
X029552Y008909D01*
X029586Y008919D01*
X029620Y008926D01*
X029655Y008929D01*
X028073Y008781D02*
X028029Y008779D01*
D13*
X028523Y008368D03*
D14*
X028447Y007538D02*
X028220Y007538D01*
X028163Y007482D01*
X028163Y007312D01*
X028503Y007312D01*
X028503Y007482D01*
X028447Y007538D01*
X028503Y007170D02*
X028163Y007170D01*
X028163Y006943D02*
X028503Y007170D01*
X028503Y006943D02*
X028163Y006943D01*
X028220Y006802D02*
X028163Y006745D01*
X028163Y006632D01*
X028220Y006575D01*
X028447Y006575D01*
X028503Y006632D01*
X028503Y006745D01*
X028447Y006802D01*
X028333Y006802D01*
X028333Y006688D01*
X029163Y006632D02*
X029220Y006575D01*
X029447Y006575D01*
X029503Y006632D01*
X029503Y006745D01*
X029447Y006802D01*
X029333Y006802D01*
X029333Y006688D01*
X029220Y006802D02*
X029163Y006745D01*
X029163Y006632D01*
X029163Y006943D02*
X029503Y007170D01*
X029163Y007170D01*
X029163Y007312D02*
X029163Y007482D01*
X029220Y007538D01*
X029447Y007538D01*
X029503Y007482D01*
X029503Y007312D01*
X029163Y007312D01*
X029163Y006943D02*
X029503Y006943D01*
X030163Y006943D02*
X030163Y007057D01*
X030163Y007000D02*
X030503Y007000D01*
X030503Y006943D02*
X030503Y007057D01*
X030503Y007189D02*
X030163Y007189D01*
X030503Y007416D01*
X030163Y007416D01*
X030163Y006802D02*
X030390Y006802D01*
X030503Y006688D01*
X030390Y006575D01*
X030163Y006575D01*
X032163Y006632D02*
X032220Y006575D01*
X032447Y006575D01*
X032220Y006802D01*
X032447Y006802D01*
X032503Y006745D01*
X032503Y006632D01*
X032447Y006575D01*
X032163Y006632D02*
X032163Y006745D01*
X032220Y006802D01*
X033163Y006688D02*
X033276Y006575D01*
X033163Y006688D02*
X033503Y006688D01*
X033503Y006575D02*
X033503Y006802D01*
X033571Y007175D02*
X033571Y007402D01*
X033457Y007515D01*
X033344Y007402D01*
X033344Y007175D01*
X033344Y007345D02*
X033571Y007345D01*
X033712Y007402D02*
X033883Y007402D01*
X033939Y007345D01*
X033939Y007175D01*
X034081Y007232D02*
X034137Y007288D01*
X034308Y007288D01*
X034308Y007345D02*
X034308Y007175D01*
X034137Y007175D01*
X034081Y007232D01*
X034137Y007402D02*
X034251Y007402D01*
X034308Y007345D01*
X034449Y007175D02*
X034562Y007175D01*
X034506Y007175D02*
X034506Y007515D01*
X034449Y007515D01*
X034695Y007345D02*
X034695Y007232D01*
X034751Y007175D01*
X034865Y007175D01*
X034921Y007232D01*
X034921Y007345D01*
X034865Y007402D01*
X034751Y007402D01*
X034695Y007345D01*
X035063Y007345D02*
X035063Y007232D01*
X035120Y007175D01*
X035290Y007175D01*
X035290Y007118D02*
X035290Y007402D01*
X035120Y007402D01*
X035063Y007345D01*
X035176Y007062D02*
X035233Y007062D01*
X035290Y007118D01*
X035276Y006802D02*
X035220Y006802D01*
X035163Y006745D01*
X035163Y006632D01*
X035220Y006575D01*
X035333Y006688D02*
X035333Y006745D01*
X035390Y006802D01*
X035447Y006802D01*
X035503Y006745D01*
X035503Y006632D01*
X035447Y006575D01*
X035333Y006745D02*
X035276Y006802D01*
X035799Y007175D02*
X035913Y007175D01*
X035856Y007175D02*
X035856Y007515D01*
X035799Y007515D02*
X035913Y007515D01*
X036045Y007402D02*
X036215Y007402D01*
X036272Y007345D01*
X036272Y007175D01*
X036045Y007175D02*
X036045Y007402D01*
X036333Y006802D02*
X036333Y006575D01*
X036163Y006745D01*
X036503Y006745D01*
X037163Y006802D02*
X037163Y006575D01*
X037333Y006575D01*
X037276Y006688D01*
X037276Y006745D01*
X037333Y006802D01*
X037447Y006802D01*
X037503Y006745D01*
X037503Y006632D01*
X037447Y006575D01*
X034503Y006575D02*
X034276Y006802D01*
X034220Y006802D01*
X034163Y006745D01*
X034163Y006632D01*
X034220Y006575D01*
X034503Y006575D02*
X034503Y006802D01*
X033712Y007175D02*
X033712Y007402D01*
X027503Y007425D02*
X027390Y007312D01*
X027163Y007312D01*
X027163Y007170D02*
X027163Y006943D01*
X027333Y006943D01*
X027276Y007057D01*
X027276Y007113D01*
X027333Y007170D01*
X027447Y007170D01*
X027503Y007113D01*
X027503Y007000D01*
X027447Y006943D01*
X027333Y006802D02*
X027333Y006575D01*
X027220Y006688D02*
X027447Y006688D01*
X026503Y007000D02*
X026447Y006943D01*
X026503Y007000D02*
X026503Y007113D01*
X026447Y007170D01*
X026390Y007170D01*
X026333Y007113D01*
X026333Y007057D01*
X026333Y007113D02*
X026276Y007170D01*
X026220Y007170D01*
X026163Y007113D01*
X026163Y007000D01*
X026220Y006943D01*
X026333Y006802D02*
X026333Y006575D01*
X026220Y006688D02*
X026447Y006688D01*
X026447Y007312D02*
X026447Y007368D01*
X026503Y007368D01*
X026503Y007312D01*
X026447Y007312D01*
X026447Y007496D02*
X026503Y007553D01*
X026503Y007666D01*
X026447Y007723D01*
X026390Y007723D01*
X026333Y007666D01*
X026333Y007609D01*
X026333Y007666D02*
X026276Y007723D01*
X026220Y007723D01*
X026163Y007666D01*
X026163Y007553D01*
X026220Y007496D01*
X026163Y007864D02*
X026390Y007864D01*
X026503Y007978D01*
X026390Y008091D01*
X026163Y008091D01*
X025503Y007425D02*
X025163Y007425D01*
X025163Y007312D02*
X025163Y007538D01*
X025220Y007170D02*
X025163Y007113D01*
X025163Y007000D01*
X025220Y006943D01*
X025276Y006943D01*
X025333Y007000D01*
X025333Y007113D01*
X025390Y007170D01*
X025447Y007170D01*
X025503Y007113D01*
X025503Y007000D01*
X025447Y006943D01*
X025503Y006802D02*
X025390Y006688D01*
X025390Y006745D02*
X025390Y006575D01*
X025503Y006575D02*
X025163Y006575D01*
X025163Y006745D01*
X025220Y006802D01*
X025333Y006802D01*
X025390Y006745D01*
X027163Y007538D02*
X027390Y007538D01*
X027503Y007425D01*
X022003Y023057D02*
X021776Y023057D01*
X021663Y023170D01*
X021776Y023284D01*
X022003Y023284D01*
X022003Y023425D02*
X021663Y023425D01*
X021663Y023595D01*
X021720Y023652D01*
X021833Y023652D01*
X021890Y023595D01*
X021890Y023425D01*
X021890Y023538D02*
X022003Y023652D01*
X022003Y023793D02*
X022003Y024020D01*
X022003Y024162D02*
X021663Y024162D01*
X021663Y024389D01*
X021833Y024275D02*
X021833Y024162D01*
X021663Y024020D02*
X021663Y023793D01*
X022003Y023793D01*
X021833Y023793D02*
X021833Y023907D01*
X022663Y024020D02*
X023003Y024020D01*
X022663Y023793D01*
X023003Y023793D01*
X022947Y023652D02*
X022833Y023652D01*
X022833Y023538D01*
X022720Y023425D02*
X022947Y023425D01*
X023003Y023482D01*
X023003Y023595D01*
X022947Y023652D01*
X022720Y023652D02*
X022663Y023595D01*
X022663Y023482D01*
X022720Y023425D01*
X021833Y023284D02*
X021833Y023057D01*
X022663Y024162D02*
X022663Y024332D01*
X022720Y024389D01*
X022947Y024389D01*
X023003Y024332D01*
X023003Y024162D01*
X022663Y024162D01*
X023663Y024218D02*
X023663Y024332D01*
X023720Y024389D01*
X023776Y024389D01*
X023833Y024332D01*
X023890Y024389D01*
X023947Y024389D01*
X024003Y024332D01*
X024003Y024218D01*
X023947Y024162D01*
X024003Y024020D02*
X024003Y023793D01*
X024003Y023907D02*
X023663Y023907D01*
X023776Y023793D01*
X023720Y024162D02*
X023663Y024218D01*
X023833Y024275D02*
X023833Y024332D01*
X024663Y024332D02*
X024663Y024218D01*
X024720Y024162D01*
X024663Y024332D02*
X024720Y024389D01*
X024776Y024389D01*
X025003Y024162D01*
X025003Y024389D01*
X025663Y024275D02*
X026003Y024275D01*
X026003Y024162D02*
X026003Y024389D01*
X025776Y024162D02*
X025663Y024275D01*
X025663Y023907D02*
X026003Y023907D01*
X026003Y024020D02*
X026003Y023793D01*
X025776Y023793D02*
X025663Y023907D01*
X025003Y023907D02*
X024663Y023907D01*
X024776Y023793D01*
X025003Y023793D02*
X025003Y024020D01*
X026663Y023907D02*
X026776Y023793D01*
X026663Y023907D02*
X027003Y023907D01*
X027003Y024020D02*
X027003Y023793D01*
X026947Y024162D02*
X026720Y024389D01*
X026947Y024389D01*
X027003Y024332D01*
X027003Y024218D01*
X026947Y024162D01*
X026720Y024162D01*
X026663Y024218D01*
X026663Y024332D01*
X026720Y024389D01*
X027663Y024332D02*
X027663Y024218D01*
X027720Y024162D01*
X027776Y024162D01*
X027833Y024218D01*
X027833Y024389D01*
X027720Y024389D02*
X027663Y024332D01*
X027720Y024389D02*
X027947Y024389D01*
X028003Y024332D01*
X028003Y024218D01*
X027947Y024162D01*
X028663Y024218D02*
X028663Y024332D01*
X028720Y024389D01*
X028776Y024389D01*
X028833Y024332D01*
X028833Y024218D01*
X028776Y024162D01*
X028720Y024162D01*
X028663Y024218D01*
X028833Y024218D02*
X028890Y024162D01*
X028947Y024162D01*
X029003Y024218D01*
X029003Y024332D01*
X028947Y024389D01*
X028890Y024389D01*
X028833Y024332D01*
X030163Y024389D02*
X030163Y024162D01*
X030163Y024389D02*
X030220Y024389D01*
X030447Y024162D01*
X030503Y024162D01*
X031163Y024389D02*
X031220Y024275D01*
X031333Y024162D01*
X031333Y024332D01*
X031390Y024389D01*
X031447Y024389D01*
X031503Y024332D01*
X031503Y024218D01*
X031447Y024162D01*
X031333Y024162D01*
X032163Y024162D02*
X032333Y024162D01*
X032276Y024275D01*
X032276Y024332D01*
X032333Y024389D01*
X032447Y024389D01*
X032503Y024332D01*
X032503Y024218D01*
X032447Y024162D01*
X032163Y024162D02*
X032163Y024389D01*
X033163Y024332D02*
X033333Y024162D01*
X033333Y024389D01*
X033503Y024332D02*
X033163Y024332D01*
X034163Y024332D02*
X034220Y024389D01*
X034276Y024389D01*
X034333Y024332D01*
X034390Y024389D01*
X034447Y024389D01*
X034503Y024332D01*
X034503Y024218D01*
X034447Y024162D01*
X034333Y024275D02*
X034333Y024332D01*
X034163Y024332D02*
X034163Y024218D01*
X034220Y024162D01*
X035163Y024218D02*
X035220Y024162D01*
X035163Y024218D02*
X035163Y024332D01*
X035220Y024389D01*
X035276Y024389D01*
X035503Y024162D01*
X035503Y024389D01*
X036163Y024389D02*
X036503Y024162D01*
X036503Y024389D02*
X036163Y024162D01*
X036163Y024020D02*
X036163Y023793D01*
X036163Y023907D02*
X036503Y023907D01*
X037163Y023964D02*
X037163Y023793D01*
X037503Y023793D01*
X037390Y023793D02*
X037390Y023964D01*
X037333Y024020D01*
X037220Y024020D01*
X037163Y023964D01*
X037163Y024162D02*
X037503Y024389D01*
X037503Y024162D02*
X037163Y024389D01*
X037503Y024020D02*
X037390Y023907D01*
D15*
X013160Y020618D02*
X013160Y010382D01*
X041507Y010382D01*
X041507Y020618D01*
X013160Y020618D01*
X016034Y018689D02*
X016428Y019043D01*
X019066Y019043D01*
X019302Y018689D01*
X018672Y018138D01*
X016585Y018138D01*
X016034Y018689D01*
X016037Y018692D02*
X019300Y018692D01*
X019234Y018790D02*
X016146Y018790D01*
X016256Y018889D02*
X019169Y018889D01*
X019103Y018987D02*
X016365Y018987D01*
X016130Y018593D02*
X019192Y018593D01*
X019080Y018495D02*
X016229Y018495D01*
X016327Y018396D02*
X018967Y018396D01*
X018854Y018298D02*
X016426Y018298D01*
X016524Y018199D02*
X018742Y018199D01*
X018937Y018002D02*
X019722Y018002D01*
X019746Y018101D02*
X019042Y018101D01*
X019147Y018199D02*
X019770Y018199D01*
X019774Y018217D02*
X019223Y015972D01*
X018672Y015618D01*
X018318Y016091D01*
X018829Y017902D01*
X019459Y018492D01*
X019774Y018217D01*
X019682Y018298D02*
X019252Y018298D01*
X019357Y018396D02*
X019569Y018396D01*
X019697Y017904D02*
X018831Y017904D01*
X018802Y017805D02*
X019673Y017805D01*
X019649Y017707D02*
X018774Y017707D01*
X018746Y017608D02*
X019625Y017608D01*
X019601Y017510D02*
X018719Y017510D01*
X018691Y017411D02*
X019576Y017411D01*
X019552Y017313D02*
X018663Y017313D01*
X018635Y017214D02*
X019528Y017214D01*
X019504Y017116D02*
X018607Y017116D01*
X018579Y017017D02*
X019480Y017017D01*
X019455Y016919D02*
X018552Y016919D01*
X018524Y016820D02*
X019431Y016820D01*
X019407Y016722D02*
X018496Y016722D01*
X018468Y016623D02*
X019383Y016623D01*
X019359Y016525D02*
X018440Y016525D01*
X018412Y016426D02*
X019335Y016426D01*
X019310Y016328D02*
X018385Y016328D01*
X018357Y016229D02*
X019286Y016229D01*
X019262Y016131D02*
X018329Y016131D01*
X018361Y016032D02*
X019238Y016032D01*
X019163Y015934D02*
X018435Y015934D01*
X018509Y015835D02*
X019009Y015835D01*
X018856Y015737D02*
X018583Y015737D01*
X018657Y015638D02*
X018703Y015638D01*
X018633Y015382D02*
X018908Y014949D01*
X018436Y013020D01*
X017924Y012547D01*
X017412Y013177D01*
X017963Y014791D01*
X018633Y015382D01*
X018658Y015343D02*
X018588Y015343D01*
X018476Y015244D02*
X018720Y015244D01*
X018783Y015146D02*
X018365Y015146D01*
X018253Y015047D02*
X018846Y015047D01*
X018908Y014949D02*
X018141Y014949D01*
X018030Y014850D02*
X018884Y014850D01*
X018860Y014752D02*
X017950Y014752D01*
X017916Y014653D02*
X018836Y014653D01*
X018812Y014555D02*
X017882Y014555D01*
X017849Y014456D02*
X018787Y014456D01*
X018763Y014358D02*
X017815Y014358D01*
X017781Y014259D02*
X018739Y014259D01*
X018715Y014161D02*
X017748Y014161D01*
X017714Y014062D02*
X018691Y014062D01*
X018667Y013964D02*
X017681Y013964D01*
X017647Y013865D02*
X018643Y013865D01*
X018619Y013767D02*
X017613Y013767D01*
X017580Y013668D02*
X018594Y013668D01*
X018570Y013570D02*
X017546Y013570D01*
X017512Y013471D02*
X018546Y013471D01*
X018522Y013373D02*
X017479Y013373D01*
X017445Y013274D02*
X018498Y013274D01*
X018474Y013176D02*
X017413Y013176D01*
X017493Y013077D02*
X018450Y013077D01*
X018391Y012979D02*
X017573Y012979D01*
X017654Y012880D02*
X018284Y012880D01*
X018178Y012782D02*
X017734Y012782D01*
X017814Y012683D02*
X018071Y012683D01*
X017964Y012585D02*
X017894Y012585D01*
X017664Y012388D02*
X014469Y012388D01*
X014420Y012350D02*
X014696Y012035D01*
X017451Y012035D01*
X017727Y012311D01*
X017176Y012980D01*
X015247Y012980D01*
X014420Y012350D01*
X014474Y012289D02*
X017705Y012289D01*
X017607Y012191D02*
X014560Y012191D01*
X014646Y012092D02*
X017508Y012092D01*
X017583Y012486D02*
X014598Y012486D01*
X014727Y012585D02*
X017502Y012585D01*
X017421Y012683D02*
X014857Y012683D01*
X014986Y012782D02*
X017340Y012782D01*
X017258Y012880D02*
X015115Y012880D01*
X015244Y012979D02*
X017177Y012979D01*
X015117Y013471D02*
X014061Y013471D01*
X014035Y013373D02*
X015091Y013373D01*
X015065Y013274D02*
X014008Y013274D01*
X013982Y013176D02*
X014993Y013176D01*
X015050Y013217D02*
X014184Y012587D01*
X013908Y012902D01*
X014459Y014949D01*
X015050Y015500D01*
X015483Y014870D01*
X015050Y013217D01*
X014858Y013077D02*
X013955Y013077D01*
X013929Y012979D02*
X014723Y012979D01*
X014587Y012880D02*
X013927Y012880D01*
X014013Y012782D02*
X014452Y012782D01*
X014316Y012683D02*
X014099Y012683D01*
X014088Y013570D02*
X015142Y013570D01*
X015168Y013668D02*
X014114Y013668D01*
X014141Y013767D02*
X015194Y013767D01*
X015220Y013865D02*
X014168Y013865D01*
X014194Y013964D02*
X015246Y013964D01*
X015271Y014062D02*
X014221Y014062D01*
X014247Y014161D02*
X015297Y014161D01*
X015323Y014259D02*
X014274Y014259D01*
X014300Y014358D02*
X015349Y014358D01*
X015374Y014456D02*
X014327Y014456D01*
X014353Y014555D02*
X015400Y014555D01*
X015426Y014653D02*
X014380Y014653D01*
X014406Y014752D02*
X015452Y014752D01*
X015478Y014850D02*
X014433Y014850D01*
X014459Y014949D02*
X015429Y014949D01*
X015361Y015047D02*
X014565Y015047D01*
X014670Y015146D02*
X015294Y015146D01*
X015226Y015244D02*
X014776Y015244D01*
X014881Y015343D02*
X015158Y015343D01*
X015090Y015441D02*
X014987Y015441D01*
X015089Y015697D02*
X015916Y016445D01*
X016349Y017980D01*
X015798Y018531D01*
X015404Y018335D01*
X014774Y016091D01*
X015089Y015697D01*
X015057Y015737D02*
X015133Y015737D01*
X015242Y015835D02*
X014979Y015835D01*
X014900Y015934D02*
X015351Y015934D01*
X015460Y016032D02*
X014821Y016032D01*
X014785Y016131D02*
X015569Y016131D01*
X015677Y016229D02*
X014813Y016229D01*
X014841Y016328D02*
X015786Y016328D01*
X015895Y016426D02*
X014868Y016426D01*
X014896Y016525D02*
X015938Y016525D01*
X015966Y016623D02*
X014924Y016623D01*
X014951Y016722D02*
X015994Y016722D01*
X016022Y016820D02*
X014979Y016820D01*
X015007Y016919D02*
X016050Y016919D01*
X016077Y017017D02*
X015034Y017017D01*
X015062Y017116D02*
X016105Y017116D01*
X016133Y017214D02*
X015090Y017214D01*
X015117Y017313D02*
X016161Y017313D01*
X016189Y017411D02*
X015145Y017411D01*
X015173Y017510D02*
X016216Y017510D01*
X016244Y017608D02*
X015200Y017608D01*
X015228Y017707D02*
X016272Y017707D01*
X016300Y017805D02*
X015256Y017805D01*
X015283Y017904D02*
X016327Y017904D01*
X016327Y018002D02*
X015311Y018002D01*
X015338Y018101D02*
X016229Y018101D01*
X016130Y018199D02*
X015366Y018199D01*
X015394Y018298D02*
X016032Y018298D01*
X015933Y018396D02*
X015527Y018396D01*
X015724Y018495D02*
X015835Y018495D01*
X015837Y015972D02*
X018003Y015972D01*
X018396Y015539D01*
X017806Y015028D01*
X015719Y015028D01*
X015325Y015539D01*
X015837Y015972D01*
X015791Y015934D02*
X018038Y015934D01*
X018128Y015835D02*
X015675Y015835D01*
X015558Y015737D02*
X018217Y015737D01*
X018307Y015638D02*
X015442Y015638D01*
X015326Y015540D02*
X018396Y015540D01*
X018283Y015441D02*
X015401Y015441D01*
X015477Y015343D02*
X018169Y015343D01*
X018056Y015244D02*
X015553Y015244D01*
X015628Y015146D02*
X017942Y015146D01*
X017828Y015047D02*
X015704Y015047D01*
X021042Y013077D02*
X021945Y013077D01*
X022080Y013176D02*
X021069Y013176D01*
X021095Y013274D02*
X022152Y013274D01*
X022136Y013217D02*
X021270Y012587D01*
X020995Y012902D01*
X021546Y014949D01*
X022136Y015500D01*
X022570Y014870D01*
X022136Y013217D01*
X022177Y013373D02*
X021122Y013373D01*
X021148Y013471D02*
X022203Y013471D01*
X022229Y013570D02*
X021175Y013570D01*
X021201Y013668D02*
X022255Y013668D01*
X022281Y013767D02*
X021228Y013767D01*
X021254Y013865D02*
X022306Y013865D01*
X022332Y013964D02*
X021281Y013964D01*
X021307Y014062D02*
X022358Y014062D01*
X022384Y014161D02*
X021334Y014161D01*
X021360Y014259D02*
X022410Y014259D01*
X022435Y014358D02*
X021387Y014358D01*
X021413Y014456D02*
X022461Y014456D01*
X022487Y014555D02*
X021440Y014555D01*
X021466Y014653D02*
X022513Y014653D01*
X022539Y014752D02*
X021493Y014752D01*
X021519Y014850D02*
X022564Y014850D01*
X022516Y014949D02*
X021546Y014949D01*
X021651Y015047D02*
X022448Y015047D01*
X022380Y015146D02*
X021757Y015146D01*
X021862Y015244D02*
X022312Y015244D01*
X022245Y015343D02*
X021968Y015343D01*
X022073Y015441D02*
X022177Y015441D01*
X022412Y015539D02*
X022924Y015972D01*
X025089Y015972D01*
X025483Y015539D01*
X024892Y015028D01*
X022806Y015028D01*
X022412Y015539D01*
X022412Y015540D02*
X025483Y015540D01*
X025393Y015638D02*
X022529Y015638D01*
X022645Y015737D02*
X025304Y015737D01*
X025214Y015835D02*
X022761Y015835D01*
X022878Y015934D02*
X025125Y015934D01*
X025404Y016091D02*
X025916Y017902D01*
X026546Y018492D01*
X026861Y018217D01*
X026310Y015972D01*
X025759Y015618D01*
X025404Y016091D01*
X025415Y016131D02*
X026349Y016131D01*
X026373Y016229D02*
X025443Y016229D01*
X025471Y016328D02*
X026397Y016328D01*
X026421Y016426D02*
X025499Y016426D01*
X025527Y016525D02*
X026445Y016525D01*
X026470Y016623D02*
X025555Y016623D01*
X025583Y016722D02*
X026494Y016722D01*
X026518Y016820D02*
X025610Y016820D01*
X025638Y016919D02*
X026542Y016919D01*
X026566Y017017D02*
X025666Y017017D01*
X025694Y017116D02*
X026590Y017116D01*
X026615Y017214D02*
X025722Y017214D01*
X025750Y017313D02*
X026639Y017313D01*
X026663Y017411D02*
X025777Y017411D01*
X025805Y017510D02*
X026687Y017510D01*
X026711Y017608D02*
X025833Y017608D01*
X025861Y017707D02*
X026736Y017707D01*
X026760Y017805D02*
X025889Y017805D01*
X025918Y017904D02*
X026784Y017904D01*
X026808Y018002D02*
X026023Y018002D01*
X026128Y018101D02*
X026832Y018101D01*
X026857Y018199D02*
X026233Y018199D01*
X026338Y018298D02*
X026768Y018298D01*
X026656Y018396D02*
X026443Y018396D01*
X026279Y018593D02*
X023217Y018593D01*
X023124Y018692D02*
X026387Y018692D01*
X026388Y018689D02*
X025759Y018138D01*
X023672Y018138D01*
X023121Y018689D01*
X023514Y019043D01*
X026152Y019043D01*
X026388Y018689D01*
X026321Y018790D02*
X023233Y018790D01*
X023342Y018889D02*
X026255Y018889D01*
X026190Y018987D02*
X023452Y018987D01*
X023315Y018495D02*
X026166Y018495D01*
X026054Y018396D02*
X023414Y018396D01*
X023512Y018298D02*
X025941Y018298D01*
X025829Y018199D02*
X023611Y018199D01*
X023414Y018002D02*
X022397Y018002D01*
X022370Y017904D02*
X023414Y017904D01*
X023436Y017980D02*
X023003Y016445D01*
X022176Y015697D01*
X021861Y016091D01*
X022491Y018335D01*
X022885Y018531D01*
X023436Y017980D01*
X023315Y018101D02*
X022425Y018101D01*
X022453Y018199D02*
X023217Y018199D01*
X023118Y018298D02*
X022480Y018298D01*
X022614Y018396D02*
X023020Y018396D01*
X022921Y018495D02*
X022811Y018495D01*
X022342Y017805D02*
X023386Y017805D01*
X023358Y017707D02*
X022315Y017707D01*
X022287Y017608D02*
X023331Y017608D01*
X023303Y017510D02*
X022259Y017510D01*
X022232Y017411D02*
X023275Y017411D01*
X023247Y017313D02*
X022204Y017313D01*
X022176Y017214D02*
X023220Y017214D01*
X023192Y017116D02*
X022149Y017116D01*
X022121Y017017D02*
X023164Y017017D01*
X023136Y016919D02*
X022093Y016919D01*
X022066Y016820D02*
X023108Y016820D01*
X023081Y016722D02*
X022038Y016722D01*
X022010Y016623D02*
X023053Y016623D01*
X023025Y016525D02*
X021983Y016525D01*
X021955Y016426D02*
X022982Y016426D01*
X022873Y016328D02*
X021927Y016328D01*
X021900Y016229D02*
X022764Y016229D01*
X022655Y016131D02*
X021872Y016131D01*
X021908Y016032D02*
X022546Y016032D01*
X022437Y015934D02*
X021987Y015934D01*
X022065Y015835D02*
X022329Y015835D01*
X022220Y015737D02*
X022144Y015737D01*
X022488Y015441D02*
X025369Y015441D01*
X025256Y015343D02*
X022563Y015343D01*
X022639Y015244D02*
X025142Y015244D01*
X025029Y015146D02*
X022715Y015146D01*
X022791Y015047D02*
X024915Y015047D01*
X025116Y014850D02*
X025971Y014850D01*
X025995Y014949D02*
X025228Y014949D01*
X025340Y015047D02*
X025932Y015047D01*
X025995Y014949D02*
X025522Y013020D01*
X025010Y012547D01*
X024499Y013177D01*
X025050Y014791D01*
X025719Y015382D01*
X025995Y014949D01*
X025946Y014752D02*
X025036Y014752D01*
X025003Y014653D02*
X025922Y014653D01*
X025898Y014555D02*
X024969Y014555D01*
X024935Y014456D02*
X025874Y014456D01*
X025850Y014358D02*
X024902Y014358D01*
X024868Y014259D02*
X025826Y014259D01*
X025802Y014161D02*
X024834Y014161D01*
X024801Y014062D02*
X025778Y014062D01*
X025753Y013964D02*
X024767Y013964D01*
X024734Y013865D02*
X025729Y013865D01*
X025705Y013767D02*
X024700Y013767D01*
X024666Y013668D02*
X025681Y013668D01*
X025657Y013570D02*
X024633Y013570D01*
X024599Y013471D02*
X025633Y013471D01*
X025609Y013373D02*
X024565Y013373D01*
X024532Y013274D02*
X025585Y013274D01*
X025560Y013176D02*
X024500Y013176D01*
X024580Y013077D02*
X025536Y013077D01*
X025478Y012979D02*
X024660Y012979D01*
X024740Y012880D02*
X025371Y012880D01*
X025264Y012782D02*
X024820Y012782D01*
X024900Y012683D02*
X025158Y012683D01*
X025051Y012585D02*
X024980Y012585D01*
X024751Y012388D02*
X021555Y012388D01*
X021507Y012350D02*
X021782Y012035D01*
X024538Y012035D01*
X024814Y012311D01*
X024262Y012980D01*
X022333Y012980D01*
X021507Y012350D01*
X021560Y012289D02*
X024792Y012289D01*
X024693Y012191D02*
X021646Y012191D01*
X021733Y012092D02*
X024595Y012092D01*
X024670Y012486D02*
X021685Y012486D01*
X021814Y012585D02*
X024588Y012585D01*
X024507Y012683D02*
X021943Y012683D01*
X022072Y012782D02*
X024426Y012782D01*
X024345Y012880D02*
X022202Y012880D01*
X022331Y012979D02*
X024264Y012979D01*
X021809Y012979D02*
X021015Y012979D01*
X021014Y012880D02*
X021674Y012880D01*
X021538Y012782D02*
X021100Y012782D01*
X021186Y012683D02*
X021403Y012683D01*
X025451Y015146D02*
X025870Y015146D01*
X025807Y015244D02*
X025563Y015244D01*
X025675Y015343D02*
X025744Y015343D01*
X025744Y015638D02*
X025790Y015638D01*
X025670Y015737D02*
X025943Y015737D01*
X026096Y015835D02*
X025596Y015835D01*
X025522Y015934D02*
X026249Y015934D01*
X026324Y016032D02*
X025448Y016032D01*
X028633Y014949D02*
X029223Y015500D01*
X029656Y014870D01*
X029223Y013217D01*
X028357Y012587D01*
X028081Y012902D01*
X028633Y014949D01*
X028632Y014949D02*
X029602Y014949D01*
X029651Y014850D02*
X028606Y014850D01*
X028579Y014752D02*
X029625Y014752D01*
X029599Y014653D02*
X028553Y014653D01*
X028526Y014555D02*
X029574Y014555D01*
X029548Y014456D02*
X028500Y014456D01*
X028473Y014358D02*
X029522Y014358D01*
X029496Y014259D02*
X028447Y014259D01*
X028420Y014161D02*
X029470Y014161D01*
X029445Y014062D02*
X028394Y014062D01*
X028367Y013964D02*
X029419Y013964D01*
X029393Y013865D02*
X028341Y013865D01*
X028314Y013767D02*
X029367Y013767D01*
X029341Y013668D02*
X028288Y013668D01*
X028261Y013570D02*
X029316Y013570D01*
X029290Y013471D02*
X028235Y013471D01*
X028208Y013373D02*
X029264Y013373D01*
X029238Y013274D02*
X028182Y013274D01*
X028155Y013176D02*
X029167Y013176D01*
X029031Y013077D02*
X028129Y013077D01*
X028102Y012979D02*
X028896Y012979D01*
X028760Y012880D02*
X028100Y012880D01*
X028186Y012782D02*
X028625Y012782D01*
X028490Y012683D02*
X028273Y012683D01*
X028593Y012350D02*
X028869Y012035D01*
X031625Y012035D01*
X031900Y012311D01*
X031349Y012980D01*
X029420Y012980D01*
X028593Y012350D01*
X028642Y012388D02*
X031837Y012388D01*
X031878Y012289D02*
X028647Y012289D01*
X028733Y012191D02*
X031780Y012191D01*
X031681Y012092D02*
X028819Y012092D01*
X028771Y012486D02*
X031756Y012486D01*
X031675Y012585D02*
X028900Y012585D01*
X029030Y012683D02*
X031594Y012683D01*
X031513Y012782D02*
X029159Y012782D01*
X029288Y012880D02*
X031432Y012880D01*
X031351Y012979D02*
X029418Y012979D01*
X031585Y013177D02*
X032097Y012547D01*
X032609Y013020D01*
X033081Y014949D01*
X032806Y015382D01*
X032136Y014791D01*
X031585Y013177D01*
X031587Y013176D02*
X032647Y013176D01*
X032671Y013274D02*
X031618Y013274D01*
X031652Y013373D02*
X032695Y013373D01*
X032719Y013471D02*
X031686Y013471D01*
X031719Y013570D02*
X032744Y013570D01*
X032768Y013668D02*
X031753Y013668D01*
X031787Y013767D02*
X032792Y013767D01*
X032816Y013865D02*
X031820Y013865D01*
X031854Y013964D02*
X032840Y013964D01*
X032864Y014062D02*
X031887Y014062D01*
X031921Y014161D02*
X032888Y014161D01*
X032912Y014259D02*
X031955Y014259D01*
X031988Y014358D02*
X032937Y014358D01*
X032961Y014456D02*
X032022Y014456D01*
X032056Y014555D02*
X032985Y014555D01*
X033009Y014653D02*
X032089Y014653D01*
X032123Y014752D02*
X033033Y014752D01*
X033057Y014850D02*
X032203Y014850D01*
X032315Y014949D02*
X033081Y014949D01*
X033019Y015047D02*
X032426Y015047D01*
X032538Y015146D02*
X032956Y015146D01*
X032894Y015244D02*
X032650Y015244D01*
X032761Y015343D02*
X032831Y015343D01*
X032845Y015618D02*
X033396Y015972D01*
X033948Y018217D01*
X033633Y018492D01*
X033003Y017902D01*
X032491Y016091D01*
X032845Y015618D01*
X032830Y015638D02*
X032876Y015638D01*
X032756Y015737D02*
X033029Y015737D01*
X033183Y015835D02*
X032682Y015835D01*
X032609Y015934D02*
X033336Y015934D01*
X033411Y016032D02*
X032535Y016032D01*
X032502Y016131D02*
X033435Y016131D01*
X033459Y016229D02*
X032530Y016229D01*
X032558Y016328D02*
X033484Y016328D01*
X033508Y016426D02*
X032586Y016426D01*
X032613Y016525D02*
X033532Y016525D01*
X033556Y016623D02*
X032641Y016623D01*
X032669Y016722D02*
X033580Y016722D01*
X033605Y016820D02*
X032697Y016820D01*
X032725Y016919D02*
X033629Y016919D01*
X033653Y017017D02*
X032753Y017017D01*
X032780Y017116D02*
X033677Y017116D01*
X033701Y017214D02*
X032808Y017214D01*
X032836Y017313D02*
X033725Y017313D01*
X033750Y017411D02*
X032864Y017411D01*
X032892Y017510D02*
X033774Y017510D01*
X033798Y017608D02*
X032920Y017608D01*
X032948Y017707D02*
X033822Y017707D01*
X033846Y017805D02*
X032975Y017805D01*
X033005Y017904D02*
X033871Y017904D01*
X033895Y018002D02*
X033110Y018002D01*
X033215Y018101D02*
X033919Y018101D01*
X033943Y018199D02*
X033320Y018199D01*
X033425Y018298D02*
X033855Y018298D01*
X033742Y018396D02*
X033530Y018396D01*
X033365Y018593D02*
X030303Y018593D01*
X030210Y018692D02*
X033473Y018692D01*
X033475Y018689D02*
X032845Y018138D01*
X030759Y018138D01*
X030207Y018689D01*
X030601Y019043D01*
X033239Y019043D01*
X033475Y018689D01*
X033408Y018790D02*
X030320Y018790D01*
X030429Y018889D02*
X033342Y018889D01*
X033276Y018987D02*
X030539Y018987D01*
X030402Y018495D02*
X033253Y018495D01*
X033140Y018396D02*
X030500Y018396D01*
X030599Y018298D02*
X033028Y018298D01*
X032915Y018199D02*
X030697Y018199D01*
X030501Y018002D02*
X029484Y018002D01*
X029456Y017904D02*
X030501Y017904D01*
X030522Y017980D02*
X030089Y016445D01*
X029262Y015697D01*
X028948Y016091D01*
X029577Y018335D01*
X029971Y018531D01*
X030522Y017980D01*
X030402Y018101D02*
X029512Y018101D01*
X029539Y018199D02*
X030304Y018199D01*
X030205Y018298D02*
X029567Y018298D01*
X029700Y018396D02*
X030107Y018396D01*
X030008Y018495D02*
X029897Y018495D01*
X029429Y017805D02*
X030473Y017805D01*
X030445Y017707D02*
X029401Y017707D01*
X029373Y017608D02*
X030417Y017608D01*
X030390Y017510D02*
X029346Y017510D01*
X029318Y017411D02*
X030362Y017411D01*
X030334Y017313D02*
X029291Y017313D01*
X029263Y017214D02*
X030306Y017214D01*
X030278Y017116D02*
X029235Y017116D01*
X029208Y017017D02*
X030251Y017017D01*
X030223Y016919D02*
X029180Y016919D01*
X029152Y016820D02*
X030195Y016820D01*
X030167Y016722D02*
X029125Y016722D01*
X029097Y016623D02*
X030139Y016623D01*
X030112Y016525D02*
X029069Y016525D01*
X029042Y016426D02*
X030068Y016426D01*
X029960Y016328D02*
X029014Y016328D01*
X028986Y016229D02*
X029851Y016229D01*
X029742Y016131D02*
X028959Y016131D01*
X028994Y016032D02*
X029633Y016032D01*
X029524Y015934D02*
X029073Y015934D01*
X029152Y015835D02*
X029415Y015835D01*
X029306Y015737D02*
X029231Y015737D01*
X029264Y015441D02*
X029160Y015441D01*
X029054Y015343D02*
X029331Y015343D01*
X029399Y015244D02*
X028949Y015244D01*
X028843Y015146D02*
X029467Y015146D01*
X029535Y015047D02*
X028738Y015047D01*
X029499Y015539D02*
X030010Y015972D01*
X032176Y015972D01*
X032570Y015539D01*
X031979Y015028D01*
X029892Y015028D01*
X029499Y015539D01*
X029499Y015540D02*
X032569Y015540D01*
X032480Y015638D02*
X029615Y015638D01*
X029732Y015737D02*
X032390Y015737D01*
X032301Y015835D02*
X029848Y015835D01*
X029965Y015934D02*
X032211Y015934D01*
X032456Y015441D02*
X029574Y015441D01*
X029650Y015343D02*
X032342Y015343D01*
X032229Y015244D02*
X029726Y015244D01*
X029802Y015146D02*
X032115Y015146D01*
X032001Y015047D02*
X029877Y015047D01*
X031667Y013077D02*
X032623Y013077D01*
X032564Y012979D02*
X031747Y012979D01*
X031827Y012880D02*
X032458Y012880D01*
X032351Y012782D02*
X031907Y012782D01*
X031987Y012683D02*
X032244Y012683D01*
X032137Y012585D02*
X032067Y012585D01*
X035168Y012902D02*
X035444Y012587D01*
X036310Y013217D01*
X036743Y014870D01*
X036310Y015500D01*
X035719Y014949D01*
X035168Y012902D01*
X035187Y012880D02*
X035847Y012880D01*
X035712Y012782D02*
X035273Y012782D01*
X035359Y012683D02*
X035576Y012683D01*
X035729Y012388D02*
X038924Y012388D01*
X038987Y012311D02*
X038711Y012035D01*
X035955Y012035D01*
X035680Y012350D01*
X036507Y012980D01*
X038436Y012980D01*
X038987Y012311D01*
X038965Y012289D02*
X035733Y012289D01*
X035820Y012191D02*
X038866Y012191D01*
X038768Y012092D02*
X035906Y012092D01*
X035858Y012486D02*
X038843Y012486D01*
X038762Y012585D02*
X035987Y012585D01*
X036116Y012683D02*
X038681Y012683D01*
X038599Y012782D02*
X036246Y012782D01*
X036375Y012880D02*
X038518Y012880D01*
X038437Y012979D02*
X036504Y012979D01*
X036253Y013176D02*
X035242Y013176D01*
X035268Y013274D02*
X036325Y013274D01*
X036351Y013373D02*
X035295Y013373D01*
X035321Y013471D02*
X036376Y013471D01*
X036402Y013570D02*
X035348Y013570D01*
X035374Y013668D02*
X036428Y013668D01*
X036454Y013767D02*
X035401Y013767D01*
X035427Y013865D02*
X036480Y013865D01*
X036505Y013964D02*
X035454Y013964D01*
X035480Y014062D02*
X036531Y014062D01*
X036557Y014161D02*
X035507Y014161D01*
X035533Y014259D02*
X036583Y014259D01*
X036609Y014358D02*
X035560Y014358D01*
X035586Y014456D02*
X036634Y014456D01*
X036660Y014555D02*
X035613Y014555D01*
X035640Y014653D02*
X036686Y014653D01*
X036712Y014752D02*
X035666Y014752D01*
X035693Y014850D02*
X036738Y014850D01*
X036689Y014949D02*
X035719Y014949D01*
X035824Y015047D02*
X036621Y015047D01*
X036553Y015146D02*
X035930Y015146D01*
X036035Y015244D02*
X036486Y015244D01*
X036418Y015343D02*
X036141Y015343D01*
X036247Y015441D02*
X036350Y015441D01*
X036585Y015539D02*
X037097Y015972D01*
X039262Y015972D01*
X039656Y015539D01*
X039066Y015028D01*
X036979Y015028D01*
X036585Y015539D01*
X036585Y015540D02*
X039656Y015540D01*
X039566Y015638D02*
X036702Y015638D01*
X036818Y015737D02*
X039477Y015737D01*
X039387Y015835D02*
X036935Y015835D01*
X037051Y015934D02*
X039298Y015934D01*
X039577Y016091D02*
X040089Y017902D01*
X040719Y018492D01*
X041034Y018217D01*
X040483Y015972D01*
X039932Y015618D01*
X039577Y016091D01*
X039589Y016131D02*
X040522Y016131D01*
X040546Y016229D02*
X039617Y016229D01*
X039644Y016328D02*
X040570Y016328D01*
X040594Y016426D02*
X039672Y016426D01*
X039700Y016525D02*
X040619Y016525D01*
X040643Y016623D02*
X039728Y016623D01*
X039756Y016722D02*
X040667Y016722D01*
X040691Y016820D02*
X039784Y016820D01*
X039811Y016919D02*
X040715Y016919D01*
X040740Y017017D02*
X039839Y017017D01*
X039867Y017116D02*
X040764Y017116D01*
X040788Y017214D02*
X039895Y017214D01*
X039923Y017313D02*
X040812Y017313D01*
X040836Y017411D02*
X039951Y017411D01*
X039978Y017510D02*
X040860Y017510D01*
X040885Y017608D02*
X040006Y017608D01*
X040034Y017707D02*
X040909Y017707D01*
X040933Y017805D02*
X040062Y017805D01*
X040091Y017904D02*
X040957Y017904D01*
X040981Y018002D02*
X040196Y018002D01*
X040301Y018101D02*
X041006Y018101D01*
X041030Y018199D02*
X040407Y018199D01*
X040512Y018298D02*
X040942Y018298D01*
X040829Y018396D02*
X040617Y018396D01*
X040452Y018593D02*
X037390Y018593D01*
X037297Y018692D02*
X040560Y018692D01*
X040562Y018689D02*
X039932Y018138D01*
X037845Y018138D01*
X037294Y018689D01*
X037688Y019043D01*
X040325Y019043D01*
X040562Y018689D01*
X040494Y018790D02*
X037406Y018790D01*
X037516Y018889D02*
X040429Y018889D01*
X040363Y018987D02*
X037625Y018987D01*
X037488Y018495D02*
X040339Y018495D01*
X040227Y018396D02*
X037587Y018396D01*
X037685Y018298D02*
X040114Y018298D01*
X040002Y018199D02*
X037784Y018199D01*
X037587Y018002D02*
X036571Y018002D01*
X036598Y018101D02*
X037489Y018101D01*
X037390Y018199D02*
X036626Y018199D01*
X036654Y018298D02*
X037292Y018298D01*
X037193Y018396D02*
X036787Y018396D01*
X036664Y018335D02*
X036034Y016091D01*
X036349Y015697D01*
X037176Y016445D01*
X037609Y017980D01*
X037058Y018531D01*
X036664Y018335D01*
X036984Y018495D02*
X037095Y018495D01*
X037587Y017904D02*
X036543Y017904D01*
X036515Y017805D02*
X037559Y017805D01*
X037532Y017707D02*
X036488Y017707D01*
X036460Y017608D02*
X037504Y017608D01*
X037476Y017510D02*
X036432Y017510D01*
X036405Y017411D02*
X037448Y017411D01*
X037421Y017313D02*
X036377Y017313D01*
X036349Y017214D02*
X037393Y017214D01*
X037365Y017116D02*
X036322Y017116D01*
X036294Y017017D02*
X037337Y017017D01*
X037309Y016919D02*
X036267Y016919D01*
X036239Y016820D02*
X037282Y016820D01*
X037254Y016722D02*
X036211Y016722D01*
X036184Y016623D02*
X037226Y016623D01*
X037198Y016525D02*
X036156Y016525D01*
X036128Y016426D02*
X037155Y016426D01*
X037046Y016328D02*
X036101Y016328D01*
X036073Y016229D02*
X036937Y016229D01*
X036828Y016131D02*
X036045Y016131D01*
X036081Y016032D02*
X036720Y016032D01*
X036611Y015934D02*
X036160Y015934D01*
X036239Y015835D02*
X036502Y015835D01*
X036393Y015737D02*
X036317Y015737D01*
X036661Y015441D02*
X039543Y015441D01*
X039429Y015343D02*
X036737Y015343D01*
X036812Y015244D02*
X039315Y015244D01*
X039202Y015146D02*
X036888Y015146D01*
X036964Y015047D02*
X039088Y015047D01*
X039290Y014850D02*
X040144Y014850D01*
X040168Y014949D02*
X039401Y014949D01*
X039513Y015047D02*
X040105Y015047D01*
X040043Y015146D02*
X039625Y015146D01*
X039736Y015244D02*
X039980Y015244D01*
X039917Y015343D02*
X039848Y015343D01*
X039892Y015382D02*
X040168Y014949D01*
X039696Y013020D01*
X039184Y012547D01*
X038672Y013177D01*
X039223Y014791D01*
X039892Y015382D01*
X039917Y015638D02*
X039963Y015638D01*
X039843Y015737D02*
X040116Y015737D01*
X040269Y015835D02*
X039769Y015835D01*
X039695Y015934D02*
X040422Y015934D01*
X040498Y016032D02*
X039621Y016032D01*
X039210Y014752D02*
X040120Y014752D01*
X040096Y014653D02*
X039176Y014653D01*
X039142Y014555D02*
X040071Y014555D01*
X040047Y014456D02*
X039109Y014456D01*
X039075Y014358D02*
X040023Y014358D01*
X039999Y014259D02*
X039041Y014259D01*
X039008Y014161D02*
X039975Y014161D01*
X039951Y014062D02*
X038974Y014062D01*
X038940Y013964D02*
X039927Y013964D01*
X039903Y013865D02*
X038907Y013865D01*
X038873Y013767D02*
X039878Y013767D01*
X039854Y013668D02*
X038840Y013668D01*
X038806Y013570D02*
X039830Y013570D01*
X039806Y013471D02*
X038772Y013471D01*
X038739Y013373D02*
X039782Y013373D01*
X039758Y013274D02*
X038705Y013274D01*
X038673Y013176D02*
X039734Y013176D01*
X039710Y013077D02*
X038753Y013077D01*
X038833Y012979D02*
X039651Y012979D01*
X039544Y012880D02*
X038913Y012880D01*
X038993Y012782D02*
X039438Y012782D01*
X039331Y012683D02*
X039073Y012683D01*
X039153Y012585D02*
X039224Y012585D01*
X036118Y013077D02*
X035215Y013077D01*
X035189Y012979D02*
X035982Y012979D01*
D16*
X033156Y012508D02*
X033158Y012533D01*
X033164Y012557D01*
X033173Y012580D01*
X033185Y012601D01*
X033201Y012620D01*
X033220Y012637D01*
X033241Y012650D01*
X033263Y012660D01*
X033287Y012667D01*
X033312Y012670D01*
X033337Y012669D01*
X033361Y012664D01*
X033384Y012656D01*
X033406Y012644D01*
X033426Y012629D01*
X033443Y012611D01*
X033457Y012591D01*
X033468Y012569D01*
X033476Y012545D01*
X033480Y012520D01*
X033480Y012496D01*
X033476Y012471D01*
X033468Y012447D01*
X033457Y012425D01*
X033443Y012405D01*
X033426Y012387D01*
X033406Y012372D01*
X033384Y012360D01*
X033361Y012352D01*
X033337Y012347D01*
X033312Y012346D01*
X033287Y012349D01*
X033263Y012356D01*
X033241Y012366D01*
X033220Y012379D01*
X033201Y012396D01*
X033185Y012415D01*
X033173Y012436D01*
X033164Y012459D01*
X033158Y012483D01*
X033156Y012508D01*
X026069Y012508D02*
X026071Y012533D01*
X026077Y012557D01*
X026086Y012580D01*
X026098Y012601D01*
X026114Y012620D01*
X026133Y012637D01*
X026154Y012650D01*
X026176Y012660D01*
X026200Y012667D01*
X026225Y012670D01*
X026250Y012669D01*
X026274Y012664D01*
X026297Y012656D01*
X026319Y012644D01*
X026339Y012629D01*
X026356Y012611D01*
X026370Y012591D01*
X026381Y012569D01*
X026389Y012545D01*
X026393Y012520D01*
X026393Y012496D01*
X026389Y012471D01*
X026381Y012447D01*
X026370Y012425D01*
X026356Y012405D01*
X026339Y012387D01*
X026319Y012372D01*
X026297Y012360D01*
X026274Y012352D01*
X026250Y012347D01*
X026225Y012346D01*
X026200Y012349D01*
X026176Y012356D01*
X026154Y012366D01*
X026133Y012379D01*
X026114Y012396D01*
X026098Y012415D01*
X026086Y012436D01*
X026077Y012459D01*
X026071Y012483D01*
X026069Y012508D01*
X018982Y012508D02*
X018984Y012533D01*
X018990Y012557D01*
X018999Y012580D01*
X019011Y012601D01*
X019027Y012620D01*
X019046Y012637D01*
X019067Y012650D01*
X019089Y012660D01*
X019113Y012667D01*
X019138Y012670D01*
X019163Y012669D01*
X019187Y012664D01*
X019210Y012656D01*
X019232Y012644D01*
X019252Y012629D01*
X019269Y012611D01*
X019283Y012591D01*
X019294Y012569D01*
X019302Y012545D01*
X019306Y012520D01*
X019306Y012496D01*
X019302Y012471D01*
X019294Y012447D01*
X019283Y012425D01*
X019269Y012405D01*
X019252Y012387D01*
X019232Y012372D01*
X019210Y012360D01*
X019187Y012352D01*
X019163Y012347D01*
X019138Y012346D01*
X019113Y012349D01*
X019089Y012356D01*
X019067Y012366D01*
X019046Y012379D01*
X019027Y012396D01*
X019011Y012415D01*
X018999Y012436D01*
X018990Y012459D01*
X018984Y012483D01*
X018982Y012508D01*
X040242Y012508D02*
X040244Y012533D01*
X040250Y012557D01*
X040259Y012580D01*
X040271Y012601D01*
X040287Y012620D01*
X040306Y012637D01*
X040327Y012650D01*
X040349Y012660D01*
X040373Y012667D01*
X040398Y012670D01*
X040423Y012669D01*
X040447Y012664D01*
X040470Y012656D01*
X040492Y012644D01*
X040512Y012629D01*
X040529Y012611D01*
X040543Y012591D01*
X040554Y012569D01*
X040562Y012545D01*
X040566Y012520D01*
X040566Y012496D01*
X040562Y012471D01*
X040554Y012447D01*
X040543Y012425D01*
X040529Y012405D01*
X040512Y012387D01*
X040492Y012372D01*
X040470Y012360D01*
X040447Y012352D01*
X040423Y012347D01*
X040398Y012346D01*
X040373Y012349D01*
X040349Y012356D01*
X040327Y012366D01*
X040306Y012379D01*
X040287Y012396D01*
X040271Y012415D01*
X040259Y012436D01*
X040250Y012459D01*
X040244Y012483D01*
X040242Y012508D01*
M02*
