%
M48
M72
T01C0.0354
T02C0.0400
T03C0.1300
%
T01
X24833Y11000
X25833Y11000
X26833Y11000
X27833Y11000
X28833Y11000
X29833Y11000
X29833Y20000
X28833Y20000
X27833Y20000
X26833Y20000
X25833Y20000
X24833Y20000
T02
X18553Y6610
X21113Y6610
X21113Y8390
X18553Y8390
X25333Y6000
X26333Y6000
X27333Y6000
X28333Y6000
X29333Y6000
X30333Y6000
X32333Y6000
X33333Y6000
X34333Y6000
X35333Y6000
X36333Y6000
X37333Y6000
X37333Y25000
X36333Y25000
X35333Y25000
X34333Y25000
X33333Y25000
X32333Y25000
X31333Y25000
X30333Y25000
X28833Y25000
X27833Y25000
X26833Y25000
X25833Y25000
X24833Y25000
X23833Y25000
X22833Y25000
X21833Y25000
T03
X18333Y25000
X38333Y8000
M30
